<mxfile host="65bd71144e">
    <diagram id="wc7IN3CEmo0w-eOJTdOE" name="Страница 1">
        <mxGraphModel dx="4400" dy="2368" grid="1" gridSize="12" guides="1" tooltips="1" connect="1" arrows="1" fold="1" page="0" pageScale="1" pageWidth="827" pageHeight="1169" math="0" shadow="0">
            <root>
                <mxCell id="0"/>
                <mxCell id="1" parent="0"/>
                <mxCell id="517" value="" style="rounded=0;whiteSpace=wrap;html=1;" vertex="1" parent="1">
                    <mxGeometry x="-2004" y="944" width="1896" height="648" as="geometry"/>
                </mxCell>
                <mxCell id="563" value="" style="rounded=0;whiteSpace=wrap;html=1;labelBackgroundColor=none;" vertex="1" parent="1">
                    <mxGeometry x="-1992" y="956" width="1896" height="648" as="geometry"/>
                </mxCell>
                <mxCell id="3" value="Header" style="text;strokeColor=none;fillColor=none;html=1;fontSize=25;fontStyle=1;verticalAlign=middle;align=center;" parent="1" vertex="1">
                    <mxGeometry x="-2028" y="-1344" width="192" height="96" as="geometry"/>
                </mxCell>
                <mxCell id="6" value="" style="rounded=0;whiteSpace=wrap;html=1;fontSize=25;labelBackgroundColor=none;labelBorderColor=none;" parent="1" vertex="1">
                    <mxGeometry x="-1980" y="-1260" width="288" height="552" as="geometry"/>
                </mxCell>
                <mxCell id="7" value="&lt;font style=&quot;font-size: 23px&quot;&gt;Список компаний&lt;/font&gt;" style="rounded=1;whiteSpace=wrap;html=1;fontSize=25;" parent="1" vertex="1">
                    <mxGeometry x="-1932" y="-1236" width="180" height="60" as="geometry"/>
                </mxCell>
                <mxCell id="9" value="Товарные категории" style="rounded=1;whiteSpace=wrap;html=1;fontSize=25;" parent="1" vertex="1">
                    <mxGeometry x="-1932" y="-1128" width="180" height="60" as="geometry"/>
                </mxCell>
                <mxCell id="10" value="Табличные отчеты" style="rounded=1;whiteSpace=wrap;html=1;fontSize=25;" parent="1" vertex="1">
                    <mxGeometry x="-1932" y="-1014" width="180" height="60" as="geometry"/>
                </mxCell>
                <mxCell id="19" value="Графики и диаграммы&lt;span style=&quot;color: rgba(0 , 0 , 0 , 0) ; font-family: monospace ; font-size: 0px&quot;&gt;%3CmxGraphModel%3E%3Croot%3E%3CmxCell%20id%3D%220%22%2F%3E%3CmxCell%20id%3D%221%22%20parent%3D%220%22%2F%3E%3CmxCell%20id%3D%222%22%20value%3D%22%D0%A2%D0%BE%D0%B2%D0%B0%D1%80%D0%BD%D1%8B%D0%B5%20%D0%BA%D0%B0%D1%82%D0%B5%D0%B3%D0%BE%D1%80%D0%B8%D0%B8%22%20style%3D%22rounded%3D1%3BwhiteSpace%3Dwrap%3Bhtml%3D1%3BfontSize%3D25%3B%22%20vertex%3D%221%22%20parent%3D%221%22%3E%3CmxGeometry%20x%3D%22-1668%22%20y%3D%22-1140%22%20width%3D%22180%22%20height%3D%2260%22%20as%3D%22geometry%22%2F%3E%3C%2FmxCell%3E%3C%2Froot%3E%3C%2FmxGraphModel%3E&lt;/span&gt;" style="rounded=1;whiteSpace=wrap;html=1;fontSize=25;" parent="1" vertex="1">
                    <mxGeometry x="-1932" y="-900" width="180" height="60" as="geometry"/>
                </mxCell>
                <mxCell id="20" value="Финансовые показатели" style="rounded=1;whiteSpace=wrap;html=1;fontSize=25;" parent="1" vertex="1">
                    <mxGeometry x="-1932" y="-792" width="180" height="60" as="geometry"/>
                </mxCell>
                <mxCell id="23" value="" style="rounded=0;whiteSpace=wrap;html=1;" parent="1" vertex="1">
                    <mxGeometry x="-2004" y="-588" width="1896" height="648" as="geometry"/>
                </mxCell>
                <mxCell id="25" value="" style="rounded=0;whiteSpace=wrap;html=1;fontSize=25;" parent="1" vertex="1">
                    <mxGeometry x="-1980" y="-516" width="252" height="552" as="geometry"/>
                </mxCell>
                <mxCell id="26" value="&lt;font style=&quot;font-size: 23px&quot;&gt;Список компаний&lt;/font&gt;" style="rounded=1;whiteSpace=wrap;html=1;fontSize=25;fontStyle=1;labelBackgroundColor=#FF66B3;" parent="1" vertex="1">
                    <mxGeometry x="-1932" y="-492" width="180" height="60" as="geometry"/>
                </mxCell>
                <mxCell id="27" value="Товарные категории" style="rounded=1;whiteSpace=wrap;html=1;fontSize=25;" parent="1" vertex="1">
                    <mxGeometry x="-1932" y="-384" width="180" height="60" as="geometry"/>
                </mxCell>
                <mxCell id="28" value="Табличные отчеты" style="rounded=1;whiteSpace=wrap;html=1;fontSize=25;" parent="1" vertex="1">
                    <mxGeometry x="-1932" y="-270" width="180" height="60" as="geometry"/>
                </mxCell>
                <mxCell id="29" value="Графики и диаграммы&lt;span style=&quot;color: rgba(0 , 0 , 0 , 0) ; font-family: monospace ; font-size: 0px&quot;&gt;%3CmxGraphModel%3E%3Croot%3E%3CmxCell%20id%3D%220%22%2F%3E%3CmxCell%20id%3D%221%22%20parent%3D%220%22%2F%3E%3CmxCell%20id%3D%222%22%20value%3D%22%D0%A2%D0%BE%D0%B2%D0%B0%D1%80%D0%BD%D1%8B%D0%B5%20%D0%BA%D0%B0%D1%82%D0%B5%D0%B3%D0%BE%D1%80%D0%B8%D0%B8%22%20style%3D%22rounded%3D1%3BwhiteSpace%3Dwrap%3Bhtml%3D1%3BfontSize%3D25%3B%22%20vertex%3D%221%22%20parent%3D%221%22%3E%3CmxGeometry%20x%3D%22-1668%22%20y%3D%22-1140%22%20width%3D%22180%22%20height%3D%2260%22%20as%3D%22geometry%22%2F%3E%3C%2FmxCell%3E%3C%2Froot%3E%3C%2FmxGraphModel%3E&lt;/span&gt;" style="rounded=1;whiteSpace=wrap;html=1;fontSize=25;" parent="1" vertex="1">
                    <mxGeometry x="-1932" y="-156" width="180" height="60" as="geometry"/>
                </mxCell>
                <mxCell id="30" value="Финансовые показатели" style="rounded=1;whiteSpace=wrap;html=1;fontSize=25;" parent="1" vertex="1">
                    <mxGeometry x="-1932" y="-48" width="180" height="60" as="geometry"/>
                </mxCell>
                <mxCell id="36" value="&lt;font color=&quot;#ffffff&quot;&gt;00001&lt;/font&gt;" style="shape=partialRectangle;whiteSpace=wrap;html=1;bottom=1;right=1;left=1;top=0;fillColor=none;routingCenterX=-0.5;labelBackgroundColor=none;labelBorderColor=none;fontSize=30;fontColor=none;" parent="1" vertex="1">
                    <mxGeometry x="-1704" y="-492" width="120" height="60" as="geometry"/>
                </mxCell>
                <mxCell id="37" value="&lt;span style=&quot;color: rgb(255 , 255 , 255)&quot;&gt;00002&lt;/span&gt;" style="shape=partialRectangle;whiteSpace=wrap;html=1;bottom=1;right=1;left=1;top=0;fillColor=none;routingCenterX=-0.5;labelBackgroundColor=none;labelBorderColor=none;fontSize=30;fontColor=none;" parent="1" vertex="1">
                    <mxGeometry x="-1704" y="-396" width="120" height="60" as="geometry"/>
                </mxCell>
                <mxCell id="38" value="&lt;span style=&quot;color: rgb(255 , 255 , 255)&quot;&gt;00003&lt;/span&gt;" style="shape=partialRectangle;whiteSpace=wrap;html=1;bottom=1;right=1;left=1;top=0;fillColor=none;routingCenterX=-0.5;labelBackgroundColor=none;labelBorderColor=none;fontSize=30;fontColor=none;" parent="1" vertex="1">
                    <mxGeometry x="-1704" y="-300" width="120" height="60" as="geometry"/>
                </mxCell>
                <mxCell id="39" value="&lt;span style=&quot;color: rgb(255 , 255 , 255)&quot;&gt;00004&lt;/span&gt;" style="shape=partialRectangle;whiteSpace=wrap;html=1;bottom=1;right=1;left=1;top=0;fillColor=none;routingCenterX=-0.5;labelBackgroundColor=none;labelBorderColor=none;fontSize=30;fontColor=none;" parent="1" vertex="1">
                    <mxGeometry x="-1704" y="-204" width="120" height="60" as="geometry"/>
                </mxCell>
                <mxCell id="40" value="&lt;span style=&quot;color: rgb(255 , 255 , 255)&quot;&gt;00005&lt;/span&gt;" style="shape=partialRectangle;whiteSpace=wrap;html=1;bottom=1;right=1;left=1;top=0;fillColor=none;routingCenterX=-0.5;labelBackgroundColor=none;labelBorderColor=none;fontSize=30;fontColor=none;" parent="1" vertex="1">
                    <mxGeometry x="-1704" y="-108" width="120" height="60" as="geometry"/>
                </mxCell>
                <mxCell id="41" value="&lt;span style=&quot;color: rgb(255 , 255 , 255)&quot;&gt;00006&lt;/span&gt;" style="shape=partialRectangle;whiteSpace=wrap;html=1;bottom=1;right=1;left=1;top=0;fillColor=none;routingCenterX=-0.5;labelBackgroundColor=none;labelBorderColor=none;fontSize=30;fontColor=none;" parent="1" vertex="1">
                    <mxGeometry x="-1704" y="-12" width="120" height="60" as="geometry"/>
                </mxCell>
                <mxCell id="42" value="&lt;font color=&quot;#ffffff&quot;&gt;Comp1&lt;/font&gt;" style="shape=partialRectangle;whiteSpace=wrap;html=1;bottom=1;right=1;left=1;top=0;fillColor=none;routingCenterX=-0.5;labelBackgroundColor=none;labelBorderColor=none;fontSize=30;fontColor=none;" parent="1" vertex="1">
                    <mxGeometry x="-1536" y="-492" width="120" height="60" as="geometry"/>
                </mxCell>
                <mxCell id="43" value="&lt;span style=&quot;color: rgb(255 , 255 , 255)&quot;&gt;Comp2&lt;/span&gt;" style="shape=partialRectangle;whiteSpace=wrap;html=1;bottom=1;right=1;left=1;top=0;fillColor=none;routingCenterX=-0.5;labelBackgroundColor=none;labelBorderColor=none;fontSize=30;fontColor=none;" parent="1" vertex="1">
                    <mxGeometry x="-1536" y="-396" width="120" height="60" as="geometry"/>
                </mxCell>
                <mxCell id="44" value="&lt;span style=&quot;color: rgb(255 , 255 , 255)&quot;&gt;Comp3&lt;/span&gt;" style="shape=partialRectangle;whiteSpace=wrap;html=1;bottom=1;right=1;left=1;top=0;fillColor=none;routingCenterX=-0.5;labelBackgroundColor=none;labelBorderColor=none;fontSize=30;fontColor=none;" parent="1" vertex="1">
                    <mxGeometry x="-1536" y="-300" width="120" height="60" as="geometry"/>
                </mxCell>
                <mxCell id="45" value="&lt;span style=&quot;color: rgb(255 , 255 , 255)&quot;&gt;Comp4&lt;/span&gt;" style="shape=partialRectangle;whiteSpace=wrap;html=1;bottom=1;right=1;left=1;top=0;fillColor=none;routingCenterX=-0.5;labelBackgroundColor=none;labelBorderColor=none;fontSize=30;fontColor=none;" parent="1" vertex="1">
                    <mxGeometry x="-1536" y="-204" width="120" height="60" as="geometry"/>
                </mxCell>
                <mxCell id="46" value="&lt;span style=&quot;color: rgb(255 , 255 , 255)&quot;&gt;Comp5&lt;/span&gt;" style="shape=partialRectangle;whiteSpace=wrap;html=1;bottom=1;right=1;left=1;top=0;fillColor=none;routingCenterX=-0.5;labelBackgroundColor=none;labelBorderColor=none;fontSize=30;fontColor=none;" parent="1" vertex="1">
                    <mxGeometry x="-1536" y="-108" width="120" height="60" as="geometry"/>
                </mxCell>
                <mxCell id="47" value="&lt;span style=&quot;color: rgb(255 , 255 , 255)&quot;&gt;Comp6&lt;/span&gt;" style="shape=partialRectangle;whiteSpace=wrap;html=1;bottom=1;right=1;left=1;top=0;fillColor=none;routingCenterX=-0.5;labelBackgroundColor=none;labelBorderColor=none;fontSize=30;fontColor=none;" parent="1" vertex="1">
                    <mxGeometry x="-1536" y="-12" width="120" height="60" as="geometry"/>
                </mxCell>
                <mxCell id="52" value="&lt;font style=&quot;font-size: 20px&quot;&gt;&amp;nbsp; &amp;nbsp; &amp;nbsp; &amp;nbsp;Название&lt;/font&gt;" style="html=1;whiteSpace=wrap;container=1;recursiveResize=0;collapsible=0;labelBackgroundColor=none;labelBorderColor=none;fontSize=30;fontColor=#FFFFFF;" parent="1" vertex="1">
                    <mxGeometry x="-1536" y="-576" width="156" height="60" as="geometry"/>
                </mxCell>
                <mxCell id="53" value="" style="triangle;html=1;whiteSpace=wrap;labelBackgroundColor=none;labelBorderColor=none;fontSize=30;fontColor=#FFFFFF;" parent="52" vertex="1">
                    <mxGeometry x="20" y="20" width="20" height="30" as="geometry"/>
                </mxCell>
                <mxCell id="54" value="&lt;font style=&quot;font-size: 20px&quot;&gt;ИНН&lt;/font&gt;" style="html=1;whiteSpace=wrap;container=1;recursiveResize=0;collapsible=0;labelBackgroundColor=none;labelBorderColor=none;fontSize=30;fontColor=#FFFFFF;" parent="1" vertex="1">
                    <mxGeometry x="-1368" y="-576" width="156" height="60" as="geometry"/>
                </mxCell>
                <mxCell id="55" value="" style="triangle;html=1;whiteSpace=wrap;labelBackgroundColor=none;labelBorderColor=none;fontSize=30;fontColor=#FFFFFF;" parent="54" vertex="1">
                    <mxGeometry x="20" y="20" width="20" height="30" as="geometry"/>
                </mxCell>
                <mxCell id="56" value="&lt;font style=&quot;font-size: 20px&quot;&gt;Адрес&lt;/font&gt;" style="html=1;whiteSpace=wrap;container=1;recursiveResize=0;collapsible=0;labelBackgroundColor=none;labelBorderColor=none;fontSize=30;fontColor=#FFFFFF;" parent="1" vertex="1">
                    <mxGeometry x="-1200" y="-576" width="156" height="60" as="geometry"/>
                </mxCell>
                <mxCell id="57" value="" style="triangle;html=1;whiteSpace=wrap;labelBackgroundColor=none;labelBorderColor=none;fontSize=30;fontColor=#FFFFFF;" parent="56" vertex="1">
                    <mxGeometry x="20" y="20" width="20" height="30" as="geometry"/>
                </mxCell>
                <mxCell id="58" value="&lt;font style=&quot;font-size: 20px&quot;&gt;&amp;nbsp; &amp;nbsp; &amp;nbsp; Контакты&lt;/font&gt;" style="html=1;whiteSpace=wrap;container=1;recursiveResize=0;collapsible=0;labelBackgroundColor=none;labelBorderColor=none;fontSize=30;fontColor=#FFFFFF;" parent="1" vertex="1">
                    <mxGeometry x="-1032" y="-576" width="156" height="60" as="geometry"/>
                </mxCell>
                <mxCell id="59" value="" style="triangle;html=1;whiteSpace=wrap;labelBackgroundColor=none;labelBorderColor=none;fontSize=30;fontColor=#FFFFFF;" parent="58" vertex="1">
                    <mxGeometry x="20" y="20" width="20" height="30" as="geometry"/>
                </mxCell>
                <mxCell id="60" value="&lt;font style=&quot;font-size: 20px&quot;&gt;&amp;nbsp; &amp;nbsp; &amp;nbsp;Логотип&lt;/font&gt;" style="html=1;whiteSpace=wrap;container=1;recursiveResize=0;collapsible=0;labelBackgroundColor=none;labelBorderColor=none;fontSize=30;fontColor=#FFFFFF;" parent="1" vertex="1">
                    <mxGeometry x="-864" y="-576" width="156" height="60" as="geometry"/>
                </mxCell>
                <mxCell id="61" value="" style="triangle;html=1;whiteSpace=wrap;labelBackgroundColor=none;labelBorderColor=none;fontSize=30;fontColor=#FFFFFF;" parent="60" vertex="1">
                    <mxGeometry x="20" y="20" width="20" height="30" as="geometry"/>
                </mxCell>
                <mxCell id="62" value="&lt;font style=&quot;font-size: 20px&quot;&gt;Сайт&lt;/font&gt;" style="html=1;whiteSpace=wrap;container=1;recursiveResize=0;collapsible=0;labelBackgroundColor=none;labelBorderColor=none;fontSize=30;fontColor=#FFFFFF;" parent="1" vertex="1">
                    <mxGeometry x="-696" y="-576" width="156" height="60" as="geometry"/>
                </mxCell>
                <mxCell id="63" value="" style="triangle;html=1;whiteSpace=wrap;labelBackgroundColor=none;labelBorderColor=none;fontSize=30;fontColor=#FFFFFF;" parent="62" vertex="1">
                    <mxGeometry x="20" y="20" width="20" height="30" as="geometry"/>
                </mxCell>
                <mxCell id="64" value="&lt;font style=&quot;font-size: 20px&quot;&gt;&amp;nbsp; &amp;nbsp; &amp;nbsp; &amp;nbsp;Директор&lt;/font&gt;" style="html=1;whiteSpace=wrap;container=1;recursiveResize=0;collapsible=0;labelBackgroundColor=none;labelBorderColor=none;fontSize=30;fontColor=#FFFFFF;" parent="1" vertex="1">
                    <mxGeometry x="-528" y="-576" width="156" height="60" as="geometry"/>
                </mxCell>
                <mxCell id="65" value="" style="triangle;html=1;whiteSpace=wrap;labelBackgroundColor=none;labelBorderColor=none;fontSize=30;fontColor=#FFFFFF;" parent="64" vertex="1">
                    <mxGeometry x="20" y="20" width="20" height="30" as="geometry"/>
                </mxCell>
                <mxCell id="67" value="&lt;div&gt;&lt;span style=&quot;font-size: 20px&quot;&gt;id&lt;/span&gt;&lt;/div&gt;" style="html=1;whiteSpace=wrap;container=1;recursiveResize=0;collapsible=0;labelBackgroundColor=none;labelBorderColor=none;fontSize=30;fontColor=#FFFFFF;align=center;" parent="1" vertex="1">
                    <mxGeometry x="-1704" y="-576" width="156" height="60" as="geometry"/>
                </mxCell>
                <mxCell id="68" value="" style="triangle;html=1;whiteSpace=wrap;labelBackgroundColor=none;labelBorderColor=none;fontSize=30;fontColor=#FFFFFF;" parent="67" vertex="1">
                    <mxGeometry x="20" y="20" width="20" height="30" as="geometry"/>
                </mxCell>
                <mxCell id="69" value="&lt;b style=&quot;font-family: &amp;#34;arial&amp;#34; , sans-serif ; font-size: 16px ; text-align: left&quot;&gt;&lt;font color=&quot;#ffffff&quot;&gt;3664069397&lt;/font&gt;&lt;/b&gt;" style="shape=partialRectangle;whiteSpace=wrap;html=1;bottom=1;right=1;left=1;top=0;fillColor=none;routingCenterX=-0.5;labelBackgroundColor=none;labelBorderColor=none;fontSize=30;fontColor=none;" parent="1" vertex="1">
                    <mxGeometry x="-1368" y="-492" width="120" height="60" as="geometry"/>
                </mxCell>
                <mxCell id="70" value="&lt;b style=&quot;font-family: &amp;#34;arial&amp;#34; , sans-serif ; font-size: 16px ; text-align: left&quot;&gt;&lt;font color=&quot;#ffffff&quot;&gt;2364069027&lt;/font&gt;&lt;/b&gt;" style="shape=partialRectangle;whiteSpace=wrap;html=1;bottom=1;right=1;left=1;top=0;fillColor=none;routingCenterX=-0.5;labelBackgroundColor=none;labelBorderColor=none;fontSize=30;fontColor=none;" parent="1" vertex="1">
                    <mxGeometry x="-1368" y="-396" width="120" height="60" as="geometry"/>
                </mxCell>
                <mxCell id="71" value="&lt;b style=&quot;font-family: &amp;#34;arial&amp;#34; , sans-serif ; font-size: 16px ; text-align: left&quot;&gt;&lt;font color=&quot;#ffffff&quot;&gt;6664060927&lt;/font&gt;&lt;/b&gt;" style="shape=partialRectangle;whiteSpace=wrap;html=1;bottom=1;right=1;left=1;top=0;fillColor=none;routingCenterX=-0.5;labelBackgroundColor=none;labelBorderColor=none;fontSize=30;fontColor=none;" parent="1" vertex="1">
                    <mxGeometry x="-1368" y="-300" width="120" height="60" as="geometry"/>
                </mxCell>
                <mxCell id="72" value="&lt;b style=&quot;font-family: &amp;#34;arial&amp;#34; , sans-serif ; font-size: 16px ; text-align: left&quot;&gt;&lt;font color=&quot;#ffffff&quot;&gt;9204069397&lt;/font&gt;&lt;/b&gt;" style="shape=partialRectangle;whiteSpace=wrap;html=1;bottom=1;right=1;left=1;top=0;fillColor=none;routingCenterX=-0.5;labelBackgroundColor=none;labelBorderColor=none;fontSize=30;fontColor=none;" parent="1" vertex="1">
                    <mxGeometry x="-1368" y="-204" width="120" height="60" as="geometry"/>
                </mxCell>
                <mxCell id="73" value="&lt;b style=&quot;font-family: &amp;#34;arial&amp;#34; , sans-serif ; font-size: 16px ; text-align: left&quot;&gt;&lt;font color=&quot;#ffffff&quot;&gt;1638299397&lt;/font&gt;&lt;/b&gt;" style="shape=partialRectangle;whiteSpace=wrap;html=1;bottom=1;right=1;left=1;top=0;fillColor=none;routingCenterX=-0.5;labelBackgroundColor=none;labelBorderColor=none;fontSize=30;fontColor=none;" parent="1" vertex="1">
                    <mxGeometry x="-1368" y="-108" width="120" height="60" as="geometry"/>
                </mxCell>
                <mxCell id="74" value="&lt;b style=&quot;font-family: &amp;#34;arial&amp;#34; , sans-serif ; font-size: 16px ; text-align: left&quot;&gt;&lt;font color=&quot;#ffffff&quot;&gt;2094069338&lt;/font&gt;&lt;/b&gt;" style="shape=partialRectangle;whiteSpace=wrap;html=1;bottom=1;right=1;left=1;top=0;fillColor=none;routingCenterX=-0.5;labelBackgroundColor=none;labelBorderColor=none;fontSize=30;fontColor=none;" parent="1" vertex="1">
                    <mxGeometry x="-1368" y="-12" width="120" height="60" as="geometry"/>
                </mxCell>
                <mxCell id="75" value="&lt;font color=&quot;#ffffff&quot; style=&quot;font-size: 15px&quot;&gt;134298, Москва, ул. Толстого, 4&lt;/font&gt;" style="shape=partialRectangle;whiteSpace=wrap;html=1;bottom=1;right=1;left=1;top=0;fillColor=none;routingCenterX=-0.5;labelBackgroundColor=none;labelBorderColor=none;fontSize=30;fontColor=none;" parent="1" vertex="1">
                    <mxGeometry x="-1200" y="-492" width="120" height="60" as="geometry"/>
                </mxCell>
                <mxCell id="76" value="&lt;span style=&quot;color: rgb(255 , 255 , 255) ; font-size: 15px&quot;&gt;140180, Москва, ул. Щипок, 18&lt;/span&gt;" style="shape=partialRectangle;whiteSpace=wrap;html=1;bottom=1;right=1;left=1;top=0;fillColor=none;routingCenterX=-0.5;labelBackgroundColor=none;labelBorderColor=none;fontSize=30;fontColor=none;" parent="1" vertex="1">
                    <mxGeometry x="-1200" y="-396" width="120" height="60" as="geometry"/>
                </mxCell>
                <mxCell id="77" value="&lt;span style=&quot;color: rgb(255 , 255 , 255) ; font-size: 15px&quot;&gt;118067, Москва, ул.Удальцова,17&lt;/span&gt;" style="shape=partialRectangle;whiteSpace=wrap;html=1;bottom=1;right=1;left=1;top=0;fillColor=none;routingCenterX=-0.5;labelBackgroundColor=none;labelBorderColor=none;fontSize=30;fontColor=none;" parent="1" vertex="1">
                    <mxGeometry x="-1200" y="-300" width="120" height="60" as="geometry"/>
                </mxCell>
                <mxCell id="78" value="&lt;span style=&quot;color: rgb(255 , 255 , 255)&quot;&gt;&lt;font style=&quot;font-size: 15px&quot;&gt;190798, Москва, ул. Лесная, 39&lt;/font&gt;&lt;/span&gt;" style="shape=partialRectangle;whiteSpace=wrap;html=1;bottom=1;right=1;left=1;top=0;fillColor=none;routingCenterX=-0.5;labelBackgroundColor=none;labelBorderColor=none;fontSize=30;fontColor=none;" parent="1" vertex="1">
                    <mxGeometry x="-1200" y="-204" width="120" height="60" as="geometry"/>
                </mxCell>
                <mxCell id="79" value="&lt;span style=&quot;color: rgb(255 , 255 , 255) ; font-size: 15px&quot;&gt;134298, Москва, ул. Толстого, 9&lt;/span&gt;" style="shape=partialRectangle;whiteSpace=wrap;html=1;bottom=1;right=1;left=1;top=0;fillColor=none;routingCenterX=-0.5;labelBackgroundColor=none;labelBorderColor=none;fontSize=30;fontColor=none;" parent="1" vertex="1">
                    <mxGeometry x="-1200" y="-108" width="120" height="60" as="geometry"/>
                </mxCell>
                <mxCell id="80" value="&lt;span style=&quot;color: rgb(255 , 255 , 255) ; font-size: 15px&quot;&gt;140180, Москва, ул. Щипок, 35&lt;/span&gt;" style="shape=partialRectangle;whiteSpace=wrap;html=1;bottom=1;right=1;left=1;top=0;fillColor=none;routingCenterX=-0.5;labelBackgroundColor=none;labelBorderColor=none;fontSize=30;fontColor=none;" parent="1" vertex="1">
                    <mxGeometry x="-1200" y="-12" width="120" height="60" as="geometry"/>
                </mxCell>
                <mxCell id="88" value="&lt;font color=&quot;#ffffff&quot; style=&quot;font-size: 18px&quot;&gt;(495)1111111&lt;/font&gt;" style="shape=partialRectangle;whiteSpace=wrap;html=1;bottom=1;right=1;left=1;top=0;fillColor=none;routingCenterX=-0.5;labelBackgroundColor=none;labelBorderColor=none;fontSize=30;fontColor=none;" parent="1" vertex="1">
                    <mxGeometry x="-1032" y="-492" width="120" height="60" as="geometry"/>
                </mxCell>
                <mxCell id="89" value="&lt;span style=&quot;color: rgb(255 , 255 , 255)&quot;&gt;&lt;font style=&quot;font-size: 18px&quot;&gt;(495)1125698&lt;/font&gt;&lt;/span&gt;" style="shape=partialRectangle;whiteSpace=wrap;html=1;bottom=1;right=1;left=1;top=0;fillColor=none;routingCenterX=-0.5;labelBackgroundColor=none;labelBorderColor=none;fontSize=30;fontColor=none;" parent="1" vertex="1">
                    <mxGeometry x="-1032" y="-396" width="120" height="60" as="geometry"/>
                </mxCell>
                <mxCell id="90" value="&lt;span style=&quot;color: rgb(255 , 255 , 255)&quot;&gt;&lt;font style=&quot;font-size: 18px&quot;&gt;(495)0986513&lt;/font&gt;&lt;/span&gt;" style="shape=partialRectangle;whiteSpace=wrap;html=1;bottom=1;right=1;left=1;top=0;fillColor=none;routingCenterX=-0.5;labelBackgroundColor=none;labelBorderColor=none;fontSize=30;fontColor=none;" parent="1" vertex="1">
                    <mxGeometry x="-1032" y="-300" width="120" height="60" as="geometry"/>
                </mxCell>
                <mxCell id="91" value="&lt;span style=&quot;color: rgb(255 , 255 , 255)&quot;&gt;&lt;font style=&quot;font-size: 18px&quot;&gt;(495)7398756&lt;/font&gt;&lt;/span&gt;" style="shape=partialRectangle;whiteSpace=wrap;html=1;bottom=1;right=1;left=1;top=0;fillColor=none;routingCenterX=-0.5;labelBackgroundColor=none;labelBorderColor=none;fontSize=30;fontColor=none;" parent="1" vertex="1">
                    <mxGeometry x="-1032" y="-204" width="120" height="60" as="geometry"/>
                </mxCell>
                <mxCell id="92" value="&lt;span style=&quot;color: rgb(255 , 255 , 255)&quot;&gt;&lt;font style=&quot;font-size: 18px&quot;&gt;(495)0986532&lt;/font&gt;&lt;/span&gt;" style="shape=partialRectangle;whiteSpace=wrap;html=1;bottom=1;right=1;left=1;top=0;fillColor=none;routingCenterX=-0.5;labelBackgroundColor=none;labelBorderColor=none;fontSize=30;fontColor=none;" parent="1" vertex="1">
                    <mxGeometry x="-1032" y="-108" width="120" height="60" as="geometry"/>
                </mxCell>
                <mxCell id="93" value="&lt;span style=&quot;color: rgb(255 , 255 , 255)&quot;&gt;&lt;font style=&quot;font-size: 18px&quot;&gt;(495)1111678&lt;/font&gt;&lt;/span&gt;" style="shape=partialRectangle;whiteSpace=wrap;html=1;bottom=1;right=1;left=1;top=0;fillColor=none;routingCenterX=-0.5;labelBackgroundColor=none;labelBorderColor=none;fontSize=30;fontColor=none;" parent="1" vertex="1">
                    <mxGeometry x="-1032" y="-12" width="120" height="60" as="geometry"/>
                </mxCell>
                <mxCell id="94" value="" style="shape=partialRectangle;whiteSpace=wrap;html=1;bottom=1;right=1;left=1;top=0;fillColor=none;routingCenterX=-0.5;labelBackgroundColor=none;labelBorderColor=none;fontSize=30;fontColor=none;" parent="1" vertex="1">
                    <mxGeometry x="-864" y="-492" width="120" height="60" as="geometry"/>
                </mxCell>
                <mxCell id="95" value="" style="shape=partialRectangle;whiteSpace=wrap;html=1;bottom=1;right=1;left=1;top=0;fillColor=none;routingCenterX=-0.5;labelBackgroundColor=none;labelBorderColor=none;fontSize=30;fontColor=none;" parent="1" vertex="1">
                    <mxGeometry x="-864" y="-396" width="120" height="60" as="geometry"/>
                </mxCell>
                <mxCell id="96" value="" style="shape=partialRectangle;whiteSpace=wrap;html=1;bottom=1;right=1;left=1;top=0;fillColor=none;routingCenterX=-0.5;labelBackgroundColor=none;labelBorderColor=none;fontSize=30;fontColor=none;" parent="1" vertex="1">
                    <mxGeometry x="-864" y="-300" width="120" height="60" as="geometry"/>
                </mxCell>
                <mxCell id="97" value="" style="shape=partialRectangle;whiteSpace=wrap;html=1;bottom=1;right=1;left=1;top=0;fillColor=none;routingCenterX=-0.5;labelBackgroundColor=none;labelBorderColor=none;fontSize=30;fontColor=none;" parent="1" vertex="1">
                    <mxGeometry x="-864" y="-204" width="120" height="60" as="geometry"/>
                </mxCell>
                <mxCell id="98" value="" style="shape=partialRectangle;whiteSpace=wrap;html=1;bottom=1;right=1;left=1;top=0;fillColor=none;routingCenterX=-0.5;labelBackgroundColor=none;labelBorderColor=none;fontSize=30;fontColor=none;" parent="1" vertex="1">
                    <mxGeometry x="-864" y="-108" width="120" height="60" as="geometry"/>
                </mxCell>
                <mxCell id="99" value="" style="shape=partialRectangle;whiteSpace=wrap;html=1;bottom=1;right=1;left=1;top=0;fillColor=none;routingCenterX=-0.5;labelBackgroundColor=none;labelBorderColor=none;fontSize=30;fontColor=none;" parent="1" vertex="1">
                    <mxGeometry x="-864" y="-12" width="120" height="60" as="geometry"/>
                </mxCell>
                <mxCell id="100" value="&lt;font color=&quot;#ffffff&quot;&gt;&lt;font style=&quot;font-size: 10px&quot;&gt;WWW.ARET.RU&lt;/font&gt;&lt;br&gt;&lt;/font&gt;" style="shape=partialRectangle;whiteSpace=wrap;html=1;bottom=1;right=1;left=1;top=0;fillColor=none;routingCenterX=-0.5;labelBackgroundColor=none;labelBorderColor=none;fontSize=30;fontColor=none;" parent="1" vertex="1">
                    <mxGeometry x="-696" y="-492" width="120" height="60" as="geometry"/>
                </mxCell>
                <mxCell id="101" value="&lt;span style=&quot;color: rgb(255 , 255 , 255) ; font-size: 10px&quot;&gt;WWW.TABLELESS.COM&lt;/span&gt;" style="shape=partialRectangle;whiteSpace=wrap;html=1;bottom=1;right=1;left=1;top=0;fillColor=none;routingCenterX=-0.5;labelBackgroundColor=none;labelBorderColor=none;fontSize=30;fontColor=none;" parent="1" vertex="1">
                    <mxGeometry x="-696" y="-396" width="120" height="60" as="geometry"/>
                </mxCell>
                <mxCell id="102" value="&lt;span style=&quot;color: rgb(255 , 255 , 255) ; font-size: 10px&quot;&gt;WWW.CATER.COM&lt;/span&gt;" style="shape=partialRectangle;whiteSpace=wrap;html=1;bottom=1;right=1;left=1;top=0;fillColor=none;routingCenterX=-0.5;labelBackgroundColor=none;labelBorderColor=none;fontSize=30;fontColor=none;" parent="1" vertex="1">
                    <mxGeometry x="-696" y="-300" width="120" height="60" as="geometry"/>
                </mxCell>
                <mxCell id="103" value="&lt;span style=&quot;color: rgb(255 , 255 , 255) ; font-size: 10px&quot;&gt;WWW.NATURSL.COM&lt;/span&gt;" style="shape=partialRectangle;whiteSpace=wrap;html=1;bottom=1;right=1;left=1;top=0;fillColor=none;routingCenterX=-0.5;labelBackgroundColor=none;labelBorderColor=none;fontSize=30;fontColor=none;" parent="1" vertex="1">
                    <mxGeometry x="-696" y="-204" width="120" height="60" as="geometry"/>
                </mxCell>
                <mxCell id="104" value="&lt;span style=&quot;color: rgb(255 , 255 , 255) ; font-size: 10px&quot;&gt;WWW.KRES.RU&lt;/span&gt;" style="shape=partialRectangle;whiteSpace=wrap;html=1;bottom=1;right=1;left=1;top=0;fillColor=none;routingCenterX=-0.5;labelBackgroundColor=none;labelBorderColor=none;fontSize=30;fontColor=none;" parent="1" vertex="1">
                    <mxGeometry x="-696" y="-108" width="120" height="60" as="geometry"/>
                </mxCell>
                <mxCell id="105" value="&lt;span style=&quot;color: rgb(255 , 255 , 255) ; font-size: 10px&quot;&gt;WWW.PERA.COM&lt;/span&gt;" style="shape=partialRectangle;whiteSpace=wrap;html=1;bottom=1;right=1;left=1;top=0;fillColor=none;routingCenterX=-0.5;labelBackgroundColor=none;labelBorderColor=none;fontSize=30;fontColor=none;" parent="1" vertex="1">
                    <mxGeometry x="-696" y="-12" width="120" height="60" as="geometry"/>
                </mxCell>
                <mxCell id="106" value="&lt;font color=&quot;#ffffff&quot; style=&quot;font-size: 15px&quot;&gt;Крестов А.С.&lt;/font&gt;" style="shape=partialRectangle;whiteSpace=wrap;html=1;bottom=1;right=1;left=1;top=0;fillColor=none;routingCenterX=-0.5;labelBackgroundColor=none;labelBorderColor=none;fontSize=30;fontColor=none;" parent="1" vertex="1">
                    <mxGeometry x="-528" y="-492" width="120" height="60" as="geometry"/>
                </mxCell>
                <mxCell id="107" value="&lt;span style=&quot;color: rgb(255 , 255 , 255) ; font-size: 15px&quot;&gt;Смоленов П.К.&lt;/span&gt;" style="shape=partialRectangle;whiteSpace=wrap;html=1;bottom=1;right=1;left=1;top=0;fillColor=none;routingCenterX=-0.5;labelBackgroundColor=none;labelBorderColor=none;fontSize=30;fontColor=none;" parent="1" vertex="1">
                    <mxGeometry x="-528" y="-396" width="120" height="60" as="geometry"/>
                </mxCell>
                <mxCell id="108" value="&lt;span style=&quot;color: rgb(255 , 255 , 255)&quot;&gt;&lt;font style=&quot;font-size: 15px&quot;&gt;Сапог П.П.&lt;/font&gt;&lt;/span&gt;" style="shape=partialRectangle;whiteSpace=wrap;html=1;bottom=1;right=1;left=1;top=0;fillColor=none;routingCenterX=-0.5;labelBackgroundColor=none;labelBorderColor=none;fontSize=30;fontColor=none;" parent="1" vertex="1">
                    <mxGeometry x="-528" y="-300" width="120" height="60" as="geometry"/>
                </mxCell>
                <mxCell id="109" value="&lt;span style=&quot;color: rgb(255 , 255 , 255) ; font-size: 15px&quot;&gt;Лапшин А.К.&lt;/span&gt;" style="shape=partialRectangle;whiteSpace=wrap;html=1;bottom=1;right=1;left=1;top=0;fillColor=none;routingCenterX=-0.5;labelBackgroundColor=none;labelBorderColor=none;fontSize=30;fontColor=none;" parent="1" vertex="1">
                    <mxGeometry x="-528" y="-204" width="120" height="60" as="geometry"/>
                </mxCell>
                <mxCell id="110" value="&lt;font color=&quot;#ffffff&quot; style=&quot;font-size: 15px&quot;&gt;Ремизова Д.Ф.&lt;/font&gt;" style="shape=partialRectangle;whiteSpace=wrap;html=1;bottom=1;right=1;left=1;top=0;fillColor=none;routingCenterX=-0.5;labelBackgroundColor=none;labelBorderColor=none;fontSize=30;fontColor=none;" parent="1" vertex="1">
                    <mxGeometry x="-528" y="-108" width="120" height="60" as="geometry"/>
                </mxCell>
                <mxCell id="111" value="&lt;span style=&quot;color: rgb(255 , 255 , 255)&quot;&gt;&lt;font style=&quot;font-size: 15px&quot;&gt;Каренов К.К.&lt;/font&gt;&lt;/span&gt;" style="shape=partialRectangle;whiteSpace=wrap;html=1;bottom=1;right=1;left=1;top=0;fillColor=none;routingCenterX=-0.5;labelBackgroundColor=none;labelBorderColor=none;fontSize=30;fontColor=none;" parent="1" vertex="1">
                    <mxGeometry x="-528" y="-12" width="120" height="60" as="geometry"/>
                </mxCell>
                <mxCell id="112" value="Icon" style="icon;html=1;image=img/clipart/Gear_128x128.png;labelBackgroundColor=#2a2a2a;labelBorderColor=none;fontSize=18;fontColor=#FFFFFF;" parent="1" vertex="1">
                    <mxGeometry x="-834" y="-504" width="60" height="60" as="geometry"/>
                </mxCell>
                <mxCell id="113" value="Icon" style="icon;html=1;image=img/clipart/Gear_128x128.png;labelBackgroundColor=#2a2a2a;labelBorderColor=none;fontSize=18;fontColor=#FFFFFF;" parent="1" vertex="1">
                    <mxGeometry x="-834" y="-408" width="60" height="60" as="geometry"/>
                </mxCell>
                <mxCell id="114" value="Icon" style="icon;html=1;image=img/clipart/Gear_128x128.png;labelBackgroundColor=#2a2a2a;labelBorderColor=none;fontSize=18;fontColor=#FFFFFF;" parent="1" vertex="1">
                    <mxGeometry x="-834" y="-312" width="60" height="60" as="geometry"/>
                </mxCell>
                <mxCell id="115" value="Icon" style="icon;html=1;image=img/clipart/Gear_128x128.png;labelBackgroundColor=#2a2a2a;labelBorderColor=none;fontSize=18;fontColor=#FFFFFF;" parent="1" vertex="1">
                    <mxGeometry x="-834" y="-216" width="60" height="60" as="geometry"/>
                </mxCell>
                <mxCell id="116" value="Icon" style="icon;html=1;image=img/clipart/Gear_128x128.png;labelBackgroundColor=#2a2a2a;labelBorderColor=none;fontSize=18;fontColor=#FFFFFF;" parent="1" vertex="1">
                    <mxGeometry x="-834" y="-120" width="60" height="60" as="geometry"/>
                </mxCell>
                <mxCell id="117" value="Icon" style="icon;html=1;image=img/clipart/Gear_128x128.png;labelBackgroundColor=#2a2a2a;labelBorderColor=none;fontSize=18;fontColor=#FFFFFF;" parent="1" vertex="1">
                    <mxGeometry x="-834" y="-24" width="60" height="60" as="geometry"/>
                </mxCell>
                <mxCell id="204" value="" style="rounded=0;whiteSpace=wrap;html=1;fontColor=none;noLabel=1;labelBackgroundColor=none;" parent="1" vertex="1">
                    <mxGeometry x="-2004" y="-1320" width="1896" height="648" as="geometry"/>
                </mxCell>
                <mxCell id="206" value="" style="rounded=0;whiteSpace=wrap;html=1;fontSize=25;labelBackgroundColor=none;labelBorderColor=none;" parent="1" vertex="1">
                    <mxGeometry x="-1968" y="-1248" width="252" height="552" as="geometry"/>
                </mxCell>
                <mxCell id="207" value="&lt;font style=&quot;font-size: 23px&quot;&gt;Список компаний&lt;/font&gt;" style="rounded=1;whiteSpace=wrap;html=1;fontSize=25;" parent="1" vertex="1">
                    <mxGeometry x="-1920" y="-1224" width="180" height="60" as="geometry"/>
                </mxCell>
                <mxCell id="208" value="Товарные категории" style="rounded=1;whiteSpace=wrap;html=1;fontSize=25;" parent="1" vertex="1">
                    <mxGeometry x="-1920" y="-1116" width="180" height="60" as="geometry"/>
                </mxCell>
                <mxCell id="209" value="Табличные отчеты" style="rounded=1;whiteSpace=wrap;html=1;fontSize=25;" parent="1" vertex="1">
                    <mxGeometry x="-1920" y="-1002" width="180" height="60" as="geometry"/>
                </mxCell>
                <mxCell id="210" value="Графики и диаграммы&lt;span style=&quot;color: rgba(0 , 0 , 0 , 0) ; font-family: monospace ; font-size: 0px&quot;&gt;%3CmxGraphModel%3E%3Croot%3E%3CmxCell%20id%3D%220%22%2F%3E%3CmxCell%20id%3D%221%22%20parent%3D%220%22%2F%3E%3CmxCell%20id%3D%222%22%20value%3D%22%D0%A2%D0%BE%D0%B2%D0%B0%D1%80%D0%BD%D1%8B%D0%B5%20%D0%BA%D0%B0%D1%82%D0%B5%D0%B3%D0%BE%D1%80%D0%B8%D0%B8%22%20style%3D%22rounded%3D1%3BwhiteSpace%3Dwrap%3Bhtml%3D1%3BfontSize%3D25%3B%22%20vertex%3D%221%22%20parent%3D%221%22%3E%3CmxGeometry%20x%3D%22-1668%22%20y%3D%22-1140%22%20width%3D%22180%22%20height%3D%2260%22%20as%3D%22geometry%22%2F%3E%3C%2FmxCell%3E%3C%2Froot%3E%3C%2FmxGraphModel%3E&lt;/span&gt;" style="rounded=1;whiteSpace=wrap;html=1;fontSize=25;" parent="1" vertex="1">
                    <mxGeometry x="-1920" y="-888" width="180" height="60" as="geometry"/>
                </mxCell>
                <mxCell id="211" value="Финансовые показатели" style="rounded=1;whiteSpace=wrap;html=1;fontSize=25;" parent="1" vertex="1">
                    <mxGeometry x="-1920" y="-780" width="180" height="60" as="geometry"/>
                </mxCell>
                <mxCell id="212" value="" style="rounded=0;whiteSpace=wrap;html=1;" parent="1" vertex="1">
                    <mxGeometry x="-1992" y="-576" width="1896" height="648" as="geometry"/>
                </mxCell>
                <mxCell id="213" value="" style="rounded=0;whiteSpace=wrap;html=1;fontSize=25;" parent="1" vertex="1">
                    <mxGeometry x="-1968" y="-504" width="252" height="552" as="geometry"/>
                </mxCell>
                <mxCell id="214" value="&lt;font style=&quot;font-size: 23px&quot;&gt;Список компаний&lt;/font&gt;" style="rounded=1;whiteSpace=wrap;html=1;fontSize=25;fontStyle=1;labelBackgroundColor=#FF66B3;" parent="1" vertex="1">
                    <mxGeometry x="-1920" y="-480" width="180" height="60" as="geometry"/>
                </mxCell>
                <mxCell id="215" value="Товарные категории" style="rounded=1;whiteSpace=wrap;html=1;fontSize=25;" parent="1" vertex="1">
                    <mxGeometry x="-1920" y="-372" width="180" height="60" as="geometry"/>
                </mxCell>
                <mxCell id="216" value="Табличные отчеты" style="rounded=1;whiteSpace=wrap;html=1;fontSize=25;" parent="1" vertex="1">
                    <mxGeometry x="-1920" y="-258" width="180" height="60" as="geometry"/>
                </mxCell>
                <mxCell id="217" value="Графики и диаграммы&lt;span style=&quot;color: rgba(0 , 0 , 0 , 0) ; font-family: monospace ; font-size: 0px&quot;&gt;%3CmxGraphModel%3E%3Croot%3E%3CmxCell%20id%3D%220%22%2F%3E%3CmxCell%20id%3D%221%22%20parent%3D%220%22%2F%3E%3CmxCell%20id%3D%222%22%20value%3D%22%D0%A2%D0%BE%D0%B2%D0%B0%D1%80%D0%BD%D1%8B%D0%B5%20%D0%BA%D0%B0%D1%82%D0%B5%D0%B3%D0%BE%D1%80%D0%B8%D0%B8%22%20style%3D%22rounded%3D1%3BwhiteSpace%3Dwrap%3Bhtml%3D1%3BfontSize%3D25%3B%22%20vertex%3D%221%22%20parent%3D%221%22%3E%3CmxGeometry%20x%3D%22-1668%22%20y%3D%22-1140%22%20width%3D%22180%22%20height%3D%2260%22%20as%3D%22geometry%22%2F%3E%3C%2FmxCell%3E%3C%2Froot%3E%3C%2FmxGraphModel%3E&lt;/span&gt;" style="rounded=1;whiteSpace=wrap;html=1;fontSize=25;" parent="1" vertex="1">
                    <mxGeometry x="-1920" y="-144" width="180" height="60" as="geometry"/>
                </mxCell>
                <mxCell id="218" value="Финансовые показатели" style="rounded=1;whiteSpace=wrap;html=1;fontSize=25;" parent="1" vertex="1">
                    <mxGeometry x="-1920" y="-36" width="180" height="60" as="geometry"/>
                </mxCell>
                <mxCell id="219" value="&lt;font color=&quot;#ffffff&quot;&gt;001&lt;/font&gt;" style="shape=partialRectangle;whiteSpace=wrap;html=1;bottom=1;right=1;left=1;top=0;fillColor=none;routingCenterX=-0.5;labelBackgroundColor=none;labelBorderColor=none;fontSize=30;fontColor=none;" parent="1" vertex="1">
                    <mxGeometry x="-1692" y="-480" width="120" height="60" as="geometry"/>
                </mxCell>
                <mxCell id="220" value="&lt;span style=&quot;color: rgb(255 , 255 , 255)&quot;&gt;002&lt;/span&gt;" style="shape=partialRectangle;whiteSpace=wrap;html=1;bottom=1;right=1;left=1;top=0;fillColor=none;routingCenterX=-0.5;labelBackgroundColor=none;labelBorderColor=none;fontSize=30;fontColor=none;" parent="1" vertex="1">
                    <mxGeometry x="-1692" y="-384" width="120" height="60" as="geometry"/>
                </mxCell>
                <mxCell id="221" value="&lt;span style=&quot;color: rgb(255 , 255 , 255)&quot;&gt;003&lt;/span&gt;" style="shape=partialRectangle;whiteSpace=wrap;html=1;bottom=1;right=1;left=1;top=0;fillColor=none;routingCenterX=-0.5;labelBackgroundColor=none;labelBorderColor=none;fontSize=30;fontColor=none;" parent="1" vertex="1">
                    <mxGeometry x="-1692" y="-288" width="120" height="60" as="geometry"/>
                </mxCell>
                <mxCell id="222" value="&lt;span style=&quot;color: rgb(255 , 255 , 255)&quot;&gt;004&lt;/span&gt;" style="shape=partialRectangle;whiteSpace=wrap;html=1;bottom=1;right=1;left=1;top=0;fillColor=none;routingCenterX=-0.5;labelBackgroundColor=none;labelBorderColor=none;fontSize=30;fontColor=none;" parent="1" vertex="1">
                    <mxGeometry x="-1692" y="-192" width="120" height="60" as="geometry"/>
                </mxCell>
                <mxCell id="223" value="&lt;span style=&quot;color: rgb(255 , 255 , 255)&quot;&gt;005&lt;/span&gt;" style="shape=partialRectangle;whiteSpace=wrap;html=1;bottom=1;right=1;left=1;top=0;fillColor=none;routingCenterX=-0.5;labelBackgroundColor=none;labelBorderColor=none;fontSize=30;fontColor=none;" parent="1" vertex="1">
                    <mxGeometry x="-1692" y="-96" width="120" height="60" as="geometry"/>
                </mxCell>
                <mxCell id="224" value="&lt;span style=&quot;color: rgb(255 , 255 , 255)&quot;&gt;006&lt;/span&gt;" style="shape=partialRectangle;whiteSpace=wrap;html=1;bottom=1;right=1;left=1;top=0;fillColor=none;routingCenterX=-0.5;labelBackgroundColor=none;labelBorderColor=none;fontSize=30;fontColor=none;" parent="1" vertex="1">
                    <mxGeometry x="-1692" width="120" height="60" as="geometry"/>
                </mxCell>
                <mxCell id="225" value="&lt;font color=&quot;#ffffff&quot;&gt;Comp1&lt;/font&gt;" style="shape=partialRectangle;whiteSpace=wrap;html=1;bottom=1;right=1;left=1;top=0;fillColor=none;routingCenterX=-0.5;labelBackgroundColor=none;labelBorderColor=none;fontSize=30;fontColor=none;" parent="1" vertex="1">
                    <mxGeometry x="-1524" y="-480" width="120" height="60" as="geometry"/>
                </mxCell>
                <mxCell id="226" value="&lt;span style=&quot;color: rgb(255 , 255 , 255)&quot;&gt;Comp2&lt;/span&gt;" style="shape=partialRectangle;whiteSpace=wrap;html=1;bottom=1;right=1;left=1;top=0;fillColor=none;routingCenterX=-0.5;labelBackgroundColor=none;labelBorderColor=none;fontSize=30;fontColor=none;" parent="1" vertex="1">
                    <mxGeometry x="-1524" y="-384" width="120" height="60" as="geometry"/>
                </mxCell>
                <mxCell id="227" value="&lt;span style=&quot;color: rgb(255 , 255 , 255)&quot;&gt;Comp3&lt;/span&gt;" style="shape=partialRectangle;whiteSpace=wrap;html=1;bottom=1;right=1;left=1;top=0;fillColor=none;routingCenterX=-0.5;labelBackgroundColor=none;labelBorderColor=none;fontSize=30;fontColor=none;" parent="1" vertex="1">
                    <mxGeometry x="-1524" y="-288" width="120" height="60" as="geometry"/>
                </mxCell>
                <mxCell id="228" value="&lt;span style=&quot;color: rgb(255 , 255 , 255)&quot;&gt;Comp4&lt;/span&gt;" style="shape=partialRectangle;whiteSpace=wrap;html=1;bottom=1;right=1;left=1;top=0;fillColor=none;routingCenterX=-0.5;labelBackgroundColor=none;labelBorderColor=none;fontSize=30;fontColor=none;" parent="1" vertex="1">
                    <mxGeometry x="-1524" y="-192" width="120" height="60" as="geometry"/>
                </mxCell>
                <mxCell id="229" value="&lt;span style=&quot;color: rgb(255 , 255 , 255)&quot;&gt;Comp5&lt;/span&gt;" style="shape=partialRectangle;whiteSpace=wrap;html=1;bottom=1;right=1;left=1;top=0;fillColor=none;routingCenterX=-0.5;labelBackgroundColor=none;labelBorderColor=none;fontSize=30;fontColor=none;" parent="1" vertex="1">
                    <mxGeometry x="-1524" y="-96" width="120" height="60" as="geometry"/>
                </mxCell>
                <mxCell id="230" value="&lt;span style=&quot;color: rgb(255 , 255 , 255)&quot;&gt;Comp6&lt;/span&gt;" style="shape=partialRectangle;whiteSpace=wrap;html=1;bottom=1;right=1;left=1;top=0;fillColor=none;routingCenterX=-0.5;labelBackgroundColor=none;labelBorderColor=none;fontSize=30;fontColor=none;" parent="1" vertex="1">
                    <mxGeometry x="-1524" width="120" height="60" as="geometry"/>
                </mxCell>
                <mxCell id="231" value="&lt;font style=&quot;font-size: 20px&quot;&gt;&amp;nbsp; &amp;nbsp; &amp;nbsp; &amp;nbsp;Название&lt;/font&gt;" style="html=1;whiteSpace=wrap;container=1;recursiveResize=0;collapsible=0;labelBackgroundColor=none;labelBorderColor=none;fontSize=30;fontColor=#FFFFFF;" parent="1" vertex="1">
                    <mxGeometry x="-1524" y="-564" width="156" height="60" as="geometry"/>
                </mxCell>
                <mxCell id="432" value="" style="triangle;html=1;whiteSpace=wrap;labelBackgroundColor=none;labelBorderColor=none;fontSize=30;fontColor=#ffffff;direction=south;fillColor=#1ba1e2;strokeColor=#006EAF;" vertex="1" parent="231">
                    <mxGeometry x="9" y="25" width="30" height="20" as="geometry"/>
                </mxCell>
                <mxCell id="233" value="&lt;font style=&quot;font-size: 20px&quot;&gt;ИНН&lt;/font&gt;" style="html=1;whiteSpace=wrap;container=1;recursiveResize=0;collapsible=0;labelBackgroundColor=none;labelBorderColor=none;fontSize=30;fontColor=#FFFFFF;" parent="1" vertex="1">
                    <mxGeometry x="-1356" y="-564" width="156" height="60" as="geometry"/>
                </mxCell>
                <mxCell id="234" value="" style="triangle;html=1;whiteSpace=wrap;labelBackgroundColor=none;labelBorderColor=none;fontSize=30;fontColor=#ffffff;direction=south;fillColor=#1ba1e2;strokeColor=#006EAF;" parent="233" vertex="1">
                    <mxGeometry x="15" y="25" width="30" height="20" as="geometry"/>
                </mxCell>
                <mxCell id="235" value="&lt;font style=&quot;font-size: 20px&quot;&gt;Адрес&lt;/font&gt;" style="html=1;whiteSpace=wrap;container=1;recursiveResize=0;collapsible=0;labelBackgroundColor=none;labelBorderColor=none;fontSize=30;fontColor=#FFFFFF;" parent="1" vertex="1">
                    <mxGeometry x="-1188" y="-564" width="156" height="60" as="geometry"/>
                </mxCell>
                <mxCell id="236" value="" style="triangle;html=1;whiteSpace=wrap;labelBackgroundColor=none;labelBorderColor=none;fontSize=30;fontColor=#ffffff;direction=south;fillColor=#1ba1e2;strokeColor=#006EAF;" parent="235" vertex="1">
                    <mxGeometry x="15" y="25" width="30" height="20" as="geometry"/>
                </mxCell>
                <mxCell id="237" value="&lt;font style=&quot;font-size: 20px&quot;&gt;&amp;nbsp; &amp;nbsp; &amp;nbsp; Контакты&lt;/font&gt;" style="html=1;whiteSpace=wrap;container=1;recursiveResize=0;collapsible=0;labelBackgroundColor=none;labelBorderColor=none;fontSize=30;fontColor=#FFFFFF;" parent="1" vertex="1">
                    <mxGeometry x="-1020" y="-564" width="156" height="60" as="geometry"/>
                </mxCell>
                <mxCell id="238" value="" style="triangle;html=1;whiteSpace=wrap;labelBackgroundColor=none;labelBorderColor=none;fontSize=30;fontColor=#FFFFFF;direction=east;" parent="237" vertex="1">
                    <mxGeometry x="20" y="20" width="20" height="30" as="geometry"/>
                </mxCell>
                <mxCell id="239" value="&lt;font style=&quot;font-size: 20px&quot;&gt;&amp;nbsp; &amp;nbsp; &amp;nbsp;Логотип&lt;/font&gt;" style="html=1;whiteSpace=wrap;container=1;recursiveResize=0;collapsible=0;labelBackgroundColor=none;labelBorderColor=none;fontSize=30;fontColor=#FFFFFF;" parent="1" vertex="1">
                    <mxGeometry x="-852" y="-564" width="156" height="60" as="geometry"/>
                </mxCell>
                <mxCell id="240" value="" style="triangle;html=1;whiteSpace=wrap;labelBackgroundColor=none;labelBorderColor=none;fontSize=30;fontColor=#ffffff;direction=south;fillColor=#1ba1e2;strokeColor=#006EAF;" parent="239" vertex="1">
                    <mxGeometry x="15" y="25" width="30" height="20" as="geometry"/>
                </mxCell>
                <mxCell id="241" value="&lt;font style=&quot;font-size: 20px&quot;&gt;Сайт&lt;/font&gt;" style="html=1;whiteSpace=wrap;container=1;recursiveResize=0;collapsible=0;labelBackgroundColor=none;labelBorderColor=none;fontSize=30;fontColor=#FFFFFF;" parent="1" vertex="1">
                    <mxGeometry x="-684" y="-564" width="156" height="60" as="geometry"/>
                </mxCell>
                <mxCell id="242" value="" style="triangle;html=1;whiteSpace=wrap;labelBackgroundColor=none;labelBorderColor=none;fontSize=30;fontColor=#ffffff;direction=south;fillColor=#1ba1e2;strokeColor=#006EAF;" parent="241" vertex="1">
                    <mxGeometry x="15" y="25" width="30" height="20" as="geometry"/>
                </mxCell>
                <mxCell id="243" value="&lt;font style=&quot;font-size: 20px&quot;&gt;&amp;nbsp; &amp;nbsp; &amp;nbsp; &amp;nbsp;Директор&lt;/font&gt;" style="html=1;whiteSpace=wrap;container=1;recursiveResize=0;collapsible=0;labelBackgroundColor=none;labelBorderColor=none;fontSize=30;fontColor=#FFFFFF;" parent="1" vertex="1">
                    <mxGeometry x="-516" y="-564" width="156" height="60" as="geometry"/>
                </mxCell>
                <mxCell id="244" value="" style="triangle;html=1;whiteSpace=wrap;labelBackgroundColor=none;labelBorderColor=none;fontSize=30;fontColor=#ffffff;direction=south;fillColor=#1ba1e2;strokeColor=#006EAF;" parent="243" vertex="1">
                    <mxGeometry x="15" y="25" width="30" height="20" as="geometry"/>
                </mxCell>
                <mxCell id="245" value="&lt;div&gt;&lt;span style=&quot;font-size: 20px&quot;&gt;id&lt;/span&gt;&lt;/div&gt;" style="html=1;whiteSpace=wrap;container=1;recursiveResize=0;collapsible=0;labelBackgroundColor=none;labelBorderColor=none;fontSize=30;fontColor=#FFFFFF;align=center;" parent="1" vertex="1">
                    <mxGeometry x="-1692" y="-564" width="156" height="60" as="geometry"/>
                </mxCell>
                <mxCell id="246" value="" style="triangle;html=1;whiteSpace=wrap;labelBackgroundColor=none;labelBorderColor=none;fontSize=30;fontColor=#ffffff;direction=south;fillColor=#1ba1e2;strokeColor=#006EAF;" parent="245" vertex="1">
                    <mxGeometry x="15" y="25" width="30" height="20" as="geometry"/>
                </mxCell>
                <mxCell id="247" value="&lt;b style=&quot;font-family: &amp;#34;arial&amp;#34; , sans-serif ; font-size: 16px ; text-align: left&quot;&gt;&lt;font color=&quot;#ffffff&quot;&gt;3664069397&lt;/font&gt;&lt;/b&gt;" style="shape=partialRectangle;whiteSpace=wrap;html=1;bottom=1;right=1;left=1;top=0;fillColor=none;routingCenterX=-0.5;labelBackgroundColor=none;labelBorderColor=none;fontSize=30;fontColor=none;" parent="1" vertex="1">
                    <mxGeometry x="-1356" y="-480" width="120" height="60" as="geometry"/>
                </mxCell>
                <mxCell id="248" value="&lt;b style=&quot;font-family: &amp;#34;arial&amp;#34; , sans-serif ; font-size: 16px ; text-align: left&quot;&gt;&lt;font color=&quot;#ffffff&quot;&gt;2364069027&lt;/font&gt;&lt;/b&gt;" style="shape=partialRectangle;whiteSpace=wrap;html=1;bottom=1;right=1;left=1;top=0;fillColor=none;routingCenterX=-0.5;labelBackgroundColor=none;labelBorderColor=none;fontSize=30;fontColor=none;" parent="1" vertex="1">
                    <mxGeometry x="-1356" y="-384" width="120" height="60" as="geometry"/>
                </mxCell>
                <mxCell id="249" value="&lt;b style=&quot;font-family: &amp;#34;arial&amp;#34; , sans-serif ; font-size: 16px ; text-align: left&quot;&gt;&lt;font color=&quot;#ffffff&quot;&gt;6664060927&lt;/font&gt;&lt;/b&gt;" style="shape=partialRectangle;whiteSpace=wrap;html=1;bottom=1;right=1;left=1;top=0;fillColor=none;routingCenterX=-0.5;labelBackgroundColor=none;labelBorderColor=none;fontSize=30;fontColor=none;" parent="1" vertex="1">
                    <mxGeometry x="-1356" y="-288" width="120" height="60" as="geometry"/>
                </mxCell>
                <mxCell id="250" value="&lt;b style=&quot;font-family: &amp;#34;arial&amp;#34; , sans-serif ; font-size: 16px ; text-align: left&quot;&gt;&lt;font color=&quot;#ffffff&quot;&gt;9204069397&lt;/font&gt;&lt;/b&gt;" style="shape=partialRectangle;whiteSpace=wrap;html=1;bottom=1;right=1;left=1;top=0;fillColor=none;routingCenterX=-0.5;labelBackgroundColor=none;labelBorderColor=none;fontSize=30;fontColor=none;" parent="1" vertex="1">
                    <mxGeometry x="-1356" y="-192" width="120" height="60" as="geometry"/>
                </mxCell>
                <mxCell id="251" value="&lt;b style=&quot;font-family: &amp;#34;arial&amp;#34; , sans-serif ; font-size: 16px ; text-align: left&quot;&gt;&lt;font color=&quot;#ffffff&quot;&gt;1638299397&lt;/font&gt;&lt;/b&gt;" style="shape=partialRectangle;whiteSpace=wrap;html=1;bottom=1;right=1;left=1;top=0;fillColor=none;routingCenterX=-0.5;labelBackgroundColor=none;labelBorderColor=none;fontSize=30;fontColor=none;" parent="1" vertex="1">
                    <mxGeometry x="-1356" y="-96" width="120" height="60" as="geometry"/>
                </mxCell>
                <mxCell id="252" value="&lt;b style=&quot;font-family: &amp;#34;arial&amp;#34; , sans-serif ; font-size: 16px ; text-align: left&quot;&gt;&lt;font color=&quot;#ffffff&quot;&gt;2094069338&lt;/font&gt;&lt;/b&gt;" style="shape=partialRectangle;whiteSpace=wrap;html=1;bottom=1;right=1;left=1;top=0;fillColor=none;routingCenterX=-0.5;labelBackgroundColor=none;labelBorderColor=none;fontSize=30;fontColor=none;" parent="1" vertex="1">
                    <mxGeometry x="-1356" width="120" height="60" as="geometry"/>
                </mxCell>
                <mxCell id="253" value="&lt;font color=&quot;#ffffff&quot; style=&quot;font-size: 15px&quot;&gt;134298, Москва, ул. Толстого, 4&lt;/font&gt;" style="shape=partialRectangle;whiteSpace=wrap;html=1;bottom=1;right=1;left=1;top=0;fillColor=none;routingCenterX=-0.5;labelBackgroundColor=none;labelBorderColor=none;fontSize=30;fontColor=none;" parent="1" vertex="1">
                    <mxGeometry x="-1188" y="-480" width="120" height="60" as="geometry"/>
                </mxCell>
                <mxCell id="254" value="&lt;span style=&quot;color: rgb(255 , 255 , 255) ; font-size: 15px&quot;&gt;140180, Москва, ул. Щипок, 18&lt;/span&gt;" style="shape=partialRectangle;whiteSpace=wrap;html=1;bottom=1;right=1;left=1;top=0;fillColor=none;routingCenterX=-0.5;labelBackgroundColor=none;labelBorderColor=none;fontSize=30;fontColor=none;" parent="1" vertex="1">
                    <mxGeometry x="-1188" y="-384" width="120" height="60" as="geometry"/>
                </mxCell>
                <mxCell id="255" value="&lt;span style=&quot;color: rgb(255 , 255 , 255) ; font-size: 15px&quot;&gt;118067, Москва, ул.Удальцова,17&lt;/span&gt;" style="shape=partialRectangle;whiteSpace=wrap;html=1;bottom=1;right=1;left=1;top=0;fillColor=none;routingCenterX=-0.5;labelBackgroundColor=none;labelBorderColor=none;fontSize=30;fontColor=none;" parent="1" vertex="1">
                    <mxGeometry x="-1188" y="-288" width="120" height="60" as="geometry"/>
                </mxCell>
                <mxCell id="256" value="&lt;span style=&quot;color: rgb(255 , 255 , 255)&quot;&gt;&lt;font style=&quot;font-size: 15px&quot;&gt;190798, Москва, ул. Лесная, 39&lt;/font&gt;&lt;/span&gt;" style="shape=partialRectangle;whiteSpace=wrap;html=1;bottom=1;right=1;left=1;top=0;fillColor=none;routingCenterX=-0.5;labelBackgroundColor=none;labelBorderColor=none;fontSize=30;fontColor=none;" parent="1" vertex="1">
                    <mxGeometry x="-1188" y="-192" width="120" height="60" as="geometry"/>
                </mxCell>
                <mxCell id="257" value="&lt;span style=&quot;color: rgb(255 , 255 , 255) ; font-size: 15px&quot;&gt;134298, Москва, ул. Толстого, 9&lt;/span&gt;" style="shape=partialRectangle;whiteSpace=wrap;html=1;bottom=1;right=1;left=1;top=0;fillColor=none;routingCenterX=-0.5;labelBackgroundColor=none;labelBorderColor=none;fontSize=30;fontColor=none;" parent="1" vertex="1">
                    <mxGeometry x="-1188" y="-96" width="120" height="60" as="geometry"/>
                </mxCell>
                <mxCell id="258" value="&lt;span style=&quot;color: rgb(255 , 255 , 255) ; font-size: 15px&quot;&gt;140180, Москва, ул. Щипок, 35&lt;/span&gt;" style="shape=partialRectangle;whiteSpace=wrap;html=1;bottom=1;right=1;left=1;top=0;fillColor=none;routingCenterX=-0.5;labelBackgroundColor=none;labelBorderColor=none;fontSize=30;fontColor=none;" parent="1" vertex="1">
                    <mxGeometry x="-1188" width="120" height="60" as="geometry"/>
                </mxCell>
                <mxCell id="265" value="" style="shape=partialRectangle;whiteSpace=wrap;html=1;bottom=1;right=1;left=1;top=0;fillColor=none;routingCenterX=-0.5;labelBackgroundColor=none;labelBorderColor=none;fontSize=30;fontColor=none;" parent="1" vertex="1">
                    <mxGeometry x="-852" y="-480" width="120" height="60" as="geometry"/>
                </mxCell>
                <mxCell id="266" value="" style="shape=partialRectangle;whiteSpace=wrap;html=1;bottom=1;right=1;left=1;top=0;fillColor=none;routingCenterX=-0.5;labelBackgroundColor=none;labelBorderColor=none;fontSize=30;fontColor=none;" parent="1" vertex="1">
                    <mxGeometry x="-852" y="-384" width="120" height="60" as="geometry"/>
                </mxCell>
                <mxCell id="267" value="" style="shape=partialRectangle;whiteSpace=wrap;html=1;bottom=1;right=1;left=1;top=0;fillColor=none;routingCenterX=-0.5;labelBackgroundColor=none;labelBorderColor=none;fontSize=30;fontColor=none;" parent="1" vertex="1">
                    <mxGeometry x="-852" y="-288" width="120" height="60" as="geometry"/>
                </mxCell>
                <mxCell id="268" value="" style="shape=partialRectangle;whiteSpace=wrap;html=1;bottom=1;right=1;left=1;top=0;fillColor=none;routingCenterX=-0.5;labelBackgroundColor=none;labelBorderColor=none;fontSize=30;fontColor=none;" parent="1" vertex="1">
                    <mxGeometry x="-852" y="-192" width="120" height="60" as="geometry"/>
                </mxCell>
                <mxCell id="269" value="" style="shape=partialRectangle;whiteSpace=wrap;html=1;bottom=1;right=1;left=1;top=0;fillColor=none;routingCenterX=-0.5;labelBackgroundColor=none;labelBorderColor=none;fontSize=30;fontColor=none;" parent="1" vertex="1">
                    <mxGeometry x="-852" y="-96" width="120" height="60" as="geometry"/>
                </mxCell>
                <mxCell id="270" value="" style="shape=partialRectangle;whiteSpace=wrap;html=1;bottom=1;right=1;left=1;top=0;fillColor=none;routingCenterX=-0.5;labelBackgroundColor=none;labelBorderColor=none;fontSize=30;fontColor=none;" parent="1" vertex="1">
                    <mxGeometry x="-852" width="120" height="60" as="geometry"/>
                </mxCell>
                <mxCell id="271" value="&lt;font color=&quot;#ffffff&quot;&gt;&lt;font style=&quot;font-size: 10px&quot;&gt;WWW.ARET.RU&lt;/font&gt;&lt;br&gt;&lt;/font&gt;" style="shape=partialRectangle;whiteSpace=wrap;html=1;bottom=1;right=1;left=1;top=0;fillColor=none;routingCenterX=-0.5;labelBackgroundColor=none;labelBorderColor=none;fontSize=30;fontColor=none;" parent="1" vertex="1">
                    <mxGeometry x="-684" y="-480" width="120" height="60" as="geometry"/>
                </mxCell>
                <mxCell id="272" value="&lt;span style=&quot;color: rgb(255 , 255 , 255) ; font-size: 10px&quot;&gt;WWW.TABLELESS.COM&lt;/span&gt;" style="shape=partialRectangle;whiteSpace=wrap;html=1;bottom=1;right=1;left=1;top=0;fillColor=none;routingCenterX=-0.5;labelBackgroundColor=none;labelBorderColor=none;fontSize=30;fontColor=none;" parent="1" vertex="1">
                    <mxGeometry x="-684" y="-384" width="120" height="60" as="geometry"/>
                </mxCell>
                <mxCell id="273" value="&lt;span style=&quot;color: rgb(255 , 255 , 255) ; font-size: 10px&quot;&gt;WWW.CATER.COM&lt;/span&gt;" style="shape=partialRectangle;whiteSpace=wrap;html=1;bottom=1;right=1;left=1;top=0;fillColor=none;routingCenterX=-0.5;labelBackgroundColor=none;labelBorderColor=none;fontSize=30;fontColor=none;" parent="1" vertex="1">
                    <mxGeometry x="-684" y="-288" width="120" height="60" as="geometry"/>
                </mxCell>
                <mxCell id="274" value="&lt;span style=&quot;color: rgb(255 , 255 , 255) ; font-size: 10px&quot;&gt;WWW.NATURSL.COM&lt;/span&gt;" style="shape=partialRectangle;whiteSpace=wrap;html=1;bottom=1;right=1;left=1;top=0;fillColor=none;routingCenterX=-0.5;labelBackgroundColor=none;labelBorderColor=none;fontSize=30;fontColor=none;" parent="1" vertex="1">
                    <mxGeometry x="-684" y="-192" width="120" height="60" as="geometry"/>
                </mxCell>
                <mxCell id="275" value="&lt;span style=&quot;color: rgb(255 , 255 , 255) ; font-size: 10px&quot;&gt;WWW.KRES.RU&lt;/span&gt;" style="shape=partialRectangle;whiteSpace=wrap;html=1;bottom=1;right=1;left=1;top=0;fillColor=none;routingCenterX=-0.5;labelBackgroundColor=none;labelBorderColor=none;fontSize=30;fontColor=none;" parent="1" vertex="1">
                    <mxGeometry x="-684" y="-96" width="120" height="60" as="geometry"/>
                </mxCell>
                <mxCell id="276" value="&lt;span style=&quot;color: rgb(255 , 255 , 255) ; font-size: 10px&quot;&gt;WWW.PERA.COM&lt;/span&gt;" style="shape=partialRectangle;whiteSpace=wrap;html=1;bottom=1;right=1;left=1;top=0;fillColor=none;routingCenterX=-0.5;labelBackgroundColor=none;labelBorderColor=none;fontSize=30;fontColor=none;" parent="1" vertex="1">
                    <mxGeometry x="-684" width="120" height="60" as="geometry"/>
                </mxCell>
                <mxCell id="277" value="&lt;font color=&quot;#ffffff&quot; style=&quot;font-size: 15px&quot;&gt;Крестов А.С.&lt;/font&gt;" style="shape=partialRectangle;whiteSpace=wrap;html=1;bottom=1;right=1;left=1;top=0;fillColor=none;routingCenterX=-0.5;labelBackgroundColor=none;labelBorderColor=none;fontSize=30;fontColor=none;" parent="1" vertex="1">
                    <mxGeometry x="-516" y="-480" width="120" height="60" as="geometry"/>
                </mxCell>
                <mxCell id="278" value="&lt;span style=&quot;color: rgb(255 , 255 , 255) ; font-size: 15px&quot;&gt;Смоленов П.К.&lt;/span&gt;" style="shape=partialRectangle;whiteSpace=wrap;html=1;bottom=1;right=1;left=1;top=0;fillColor=none;routingCenterX=-0.5;labelBackgroundColor=none;labelBorderColor=none;fontSize=30;fontColor=none;" parent="1" vertex="1">
                    <mxGeometry x="-516" y="-384" width="120" height="60" as="geometry"/>
                </mxCell>
                <mxCell id="279" value="&lt;span style=&quot;color: rgb(255 , 255 , 255)&quot;&gt;&lt;font style=&quot;font-size: 15px&quot;&gt;Сапог П.П.&lt;/font&gt;&lt;/span&gt;" style="shape=partialRectangle;whiteSpace=wrap;html=1;bottom=1;right=1;left=1;top=0;fillColor=none;routingCenterX=-0.5;labelBackgroundColor=none;labelBorderColor=none;fontSize=30;fontColor=none;" parent="1" vertex="1">
                    <mxGeometry x="-516" y="-288" width="120" height="60" as="geometry"/>
                </mxCell>
                <mxCell id="280" value="&lt;span style=&quot;color: rgb(255 , 255 , 255) ; font-size: 15px&quot;&gt;Лапшин А.К.&lt;/span&gt;" style="shape=partialRectangle;whiteSpace=wrap;html=1;bottom=1;right=1;left=1;top=0;fillColor=none;routingCenterX=-0.5;labelBackgroundColor=none;labelBorderColor=none;fontSize=30;fontColor=none;" parent="1" vertex="1">
                    <mxGeometry x="-516" y="-192" width="120" height="60" as="geometry"/>
                </mxCell>
                <mxCell id="281" value="&lt;font color=&quot;#ffffff&quot; style=&quot;font-size: 15px&quot;&gt;Ремизова Д.Ф.&lt;/font&gt;" style="shape=partialRectangle;whiteSpace=wrap;html=1;bottom=1;right=1;left=1;top=0;fillColor=none;routingCenterX=-0.5;labelBackgroundColor=none;labelBorderColor=none;fontSize=30;fontColor=none;" parent="1" vertex="1">
                    <mxGeometry x="-516" y="-96" width="120" height="60" as="geometry"/>
                </mxCell>
                <mxCell id="282" value="&lt;span style=&quot;color: rgb(255 , 255 , 255)&quot;&gt;&lt;font style=&quot;font-size: 15px&quot;&gt;Каренов К.К.&lt;/font&gt;&lt;/span&gt;" style="shape=partialRectangle;whiteSpace=wrap;html=1;bottom=1;right=1;left=1;top=0;fillColor=none;routingCenterX=-0.5;labelBackgroundColor=none;labelBorderColor=none;fontSize=30;fontColor=none;" parent="1" vertex="1">
                    <mxGeometry x="-516" width="120" height="60" as="geometry"/>
                </mxCell>
                <mxCell id="283" value="Icon" style="icon;html=1;image=img/clipart/Gear_128x128.png;labelBackgroundColor=#2a2a2a;labelBorderColor=none;fontSize=18;fontColor=#FFFFFF;" parent="1" vertex="1">
                    <mxGeometry x="-822" y="-492" width="60" height="60" as="geometry"/>
                </mxCell>
                <mxCell id="284" value="Icon" style="icon;html=1;image=img/clipart/Gear_128x128.png;labelBackgroundColor=#2a2a2a;labelBorderColor=none;fontSize=18;fontColor=#FFFFFF;" parent="1" vertex="1">
                    <mxGeometry x="-822" y="-396" width="60" height="60" as="geometry"/>
                </mxCell>
                <mxCell id="285" value="Icon" style="icon;html=1;image=img/clipart/Gear_128x128.png;labelBackgroundColor=#2a2a2a;labelBorderColor=none;fontSize=18;fontColor=#FFFFFF;" parent="1" vertex="1">
                    <mxGeometry x="-822" y="-300" width="60" height="60" as="geometry"/>
                </mxCell>
                <mxCell id="286" value="Icon" style="icon;html=1;image=img/clipart/Gear_128x128.png;labelBackgroundColor=#2a2a2a;labelBorderColor=none;fontSize=18;fontColor=#FFFFFF;" parent="1" vertex="1">
                    <mxGeometry x="-822" y="-204" width="60" height="60" as="geometry"/>
                </mxCell>
                <mxCell id="287" value="Icon" style="icon;html=1;image=img/clipart/Gear_128x128.png;labelBackgroundColor=#2a2a2a;labelBorderColor=none;fontSize=18;fontColor=#FFFFFF;" parent="1" vertex="1">
                    <mxGeometry x="-822" y="-108" width="60" height="60" as="geometry"/>
                </mxCell>
                <mxCell id="288" value="Icon" style="icon;html=1;image=img/clipart/Gear_128x128.png;labelBackgroundColor=#2a2a2a;labelBorderColor=none;fontSize=18;fontColor=#FFFFFF;" parent="1" vertex="1">
                    <mxGeometry x="-822" y="-12" width="60" height="60" as="geometry"/>
                </mxCell>
                <mxCell id="289" value="" style="rounded=0;whiteSpace=wrap;html=1;" parent="1" vertex="1">
                    <mxGeometry x="-2004" y="192" width="1896" height="648" as="geometry"/>
                </mxCell>
                <mxCell id="290" value="" style="rounded=0;whiteSpace=wrap;html=1;labelBackgroundColor=none;" parent="1" vertex="1">
                    <mxGeometry x="-1992" y="204" width="1896" height="648" as="geometry"/>
                </mxCell>
                <mxCell id="291" value="" style="rounded=0;whiteSpace=wrap;html=1;fontSize=25;" parent="1" vertex="1">
                    <mxGeometry x="-1968" y="276" width="252" height="552" as="geometry"/>
                </mxCell>
                <mxCell id="292" value="&lt;font style=&quot;font-size: 23px&quot;&gt;Список компаний&lt;/font&gt;" style="rounded=1;whiteSpace=wrap;html=1;fontSize=25;fontStyle=1;labelBackgroundColor=none;" parent="1" vertex="1">
                    <mxGeometry x="-1920" y="300" width="180" height="60" as="geometry"/>
                </mxCell>
                <mxCell id="293" value="Товарные категории" style="rounded=1;whiteSpace=wrap;html=1;fontSize=25;labelBackgroundColor=#00CC66;" parent="1" vertex="1">
                    <mxGeometry x="-1920" y="408" width="180" height="60" as="geometry"/>
                </mxCell>
                <mxCell id="294" value="Табличные отчеты" style="rounded=1;whiteSpace=wrap;html=1;fontSize=25;" parent="1" vertex="1">
                    <mxGeometry x="-1920" y="522" width="180" height="60" as="geometry"/>
                </mxCell>
                <mxCell id="295" value="Графики и диаграммы&lt;span style=&quot;color: rgba(0 , 0 , 0 , 0) ; font-family: monospace ; font-size: 0px&quot;&gt;%3CmxGraphModel%3E%3Croot%3E%3CmxCell%20id%3D%220%22%2F%3E%3CmxCell%20id%3D%221%22%20parent%3D%220%22%2F%3E%3CmxCell%20id%3D%222%22%20value%3D%22%D0%A2%D0%BE%D0%B2%D0%B0%D1%80%D0%BD%D1%8B%D0%B5%20%D0%BA%D0%B0%D1%82%D0%B5%D0%B3%D0%BE%D1%80%D0%B8%D0%B8%22%20style%3D%22rounded%3D1%3BwhiteSpace%3Dwrap%3Bhtml%3D1%3BfontSize%3D25%3B%22%20vertex%3D%221%22%20parent%3D%221%22%3E%3CmxGeometry%20x%3D%22-1668%22%20y%3D%22-1140%22%20width%3D%22180%22%20height%3D%2260%22%20as%3D%22geometry%22%2F%3E%3C%2FmxCell%3E%3C%2Froot%3E%3C%2FmxGraphModel%3E&lt;/span&gt;" style="rounded=1;whiteSpace=wrap;html=1;fontSize=25;" parent="1" vertex="1">
                    <mxGeometry x="-1920" y="636" width="180" height="60" as="geometry"/>
                </mxCell>
                <mxCell id="296" value="Финансовые показатели" style="rounded=1;whiteSpace=wrap;html=1;fontSize=25;" parent="1" vertex="1">
                    <mxGeometry x="-1920" y="744" width="180" height="60" as="geometry"/>
                </mxCell>
                <mxCell id="297" value="&lt;font color=&quot;#ffffff&quot;&gt;00036&lt;/font&gt;" style="shape=partialRectangle;whiteSpace=wrap;html=1;bottom=1;right=1;left=1;top=0;fillColor=none;routingCenterX=-0.5;labelBackgroundColor=none;labelBorderColor=none;fontSize=30;fontColor=none;" parent="1" vertex="1">
                    <mxGeometry x="-1692" y="300" width="120" height="60" as="geometry"/>
                </mxCell>
                <mxCell id="298" value="&lt;span style=&quot;color: rgb(255 , 255 , 255)&quot;&gt;28012&lt;/span&gt;" style="shape=partialRectangle;whiteSpace=wrap;html=1;bottom=1;right=1;left=1;top=0;fillColor=none;routingCenterX=-0.5;labelBackgroundColor=none;labelBorderColor=none;fontSize=30;fontColor=none;" parent="1" vertex="1">
                    <mxGeometry x="-1692" y="396" width="120" height="60" as="geometry"/>
                </mxCell>
                <mxCell id="299" value="&lt;span style=&quot;color: rgb(255 , 255 , 255)&quot;&gt;37649&lt;/span&gt;" style="shape=partialRectangle;whiteSpace=wrap;html=1;bottom=1;right=1;left=1;top=0;fillColor=none;routingCenterX=-0.5;labelBackgroundColor=none;labelBorderColor=none;fontSize=30;fontColor=none;" parent="1" vertex="1">
                    <mxGeometry x="-1692" y="492" width="120" height="60" as="geometry"/>
                </mxCell>
                <mxCell id="300" value="&lt;span style=&quot;color: rgb(255 , 255 , 255)&quot;&gt;10999&lt;/span&gt;" style="shape=partialRectangle;whiteSpace=wrap;html=1;bottom=1;right=1;left=1;top=0;fillColor=none;routingCenterX=-0.5;labelBackgroundColor=none;labelBorderColor=none;fontSize=30;fontColor=none;" parent="1" vertex="1">
                    <mxGeometry x="-1692" y="588" width="120" height="60" as="geometry"/>
                </mxCell>
                <mxCell id="301" value="&lt;span style=&quot;color: rgb(255 , 255 , 255)&quot;&gt;23333&lt;/span&gt;" style="shape=partialRectangle;whiteSpace=wrap;html=1;bottom=1;right=1;left=1;top=0;fillColor=none;routingCenterX=-0.5;labelBackgroundColor=none;labelBorderColor=none;fontSize=30;fontColor=none;" parent="1" vertex="1">
                    <mxGeometry x="-1692" y="684" width="120" height="60" as="geometry"/>
                </mxCell>
                <mxCell id="302" value="&lt;span style=&quot;color: rgb(255 , 255 , 255)&quot;&gt;00965&lt;/span&gt;" style="shape=partialRectangle;whiteSpace=wrap;html=1;bottom=1;right=1;left=1;top=0;fillColor=none;routingCenterX=-0.5;labelBackgroundColor=none;labelBorderColor=none;fontSize=30;fontColor=none;" parent="1" vertex="1">
                    <mxGeometry x="-1692" y="780" width="120" height="60" as="geometry"/>
                </mxCell>
                <mxCell id="303" value="&lt;div&gt;&lt;span style=&quot;font-size: 20px&quot;&gt;id&lt;/span&gt;&lt;/div&gt;" style="html=1;whiteSpace=wrap;container=1;recursiveResize=0;collapsible=0;labelBackgroundColor=none;labelBorderColor=none;fontSize=30;fontColor=#FFFFFF;align=center;" parent="1" vertex="1">
                    <mxGeometry x="-1692" y="216" width="120" height="60" as="geometry"/>
                </mxCell>
                <mxCell id="304" value="" style="triangle;html=1;whiteSpace=wrap;labelBackgroundColor=none;labelBorderColor=none;fontSize=30;fontColor=#ffffff;direction=south;fillColor=#1ba1e2;strokeColor=#006EAF;" parent="303" vertex="1">
                    <mxGeometry x="15" y="25" width="30" height="20" as="geometry"/>
                </mxCell>
                <mxCell id="307" value="&lt;font style=&quot;font-size: 15px&quot;&gt;&amp;nbsp; &amp;nbsp; &amp;nbsp; &amp;nbsp; &amp;nbsp; Категория&lt;/font&gt;" style="html=1;whiteSpace=wrap;container=1;recursiveResize=0;collapsible=0;labelBackgroundColor=none;labelBorderColor=none;fontSize=30;fontColor=#FFFFFF;align=center;" parent="1" vertex="1">
                    <mxGeometry x="-1560" y="216" width="120" height="60" as="geometry"/>
                </mxCell>
                <mxCell id="308" value="" style="triangle;html=1;whiteSpace=wrap;labelBackgroundColor=none;labelBorderColor=none;fontSize=30;fontColor=#ffffff;direction=south;fillColor=#1ba1e2;strokeColor=#006EAF;" parent="307" vertex="1">
                    <mxGeometry x="6" y="25" width="30" height="20" as="geometry"/>
                </mxCell>
                <mxCell id="309" value="&lt;font color=&quot;#ffffff&quot; style=&quot;font-size: 20px&quot;&gt;Овощи, фрукты&amp;nbsp;&lt;/font&gt;" style="shape=partialRectangle;whiteSpace=wrap;html=1;bottom=1;right=1;left=1;top=0;fillColor=none;routingCenterX=-0.5;labelBackgroundColor=none;labelBorderColor=none;fontSize=30;fontColor=none;" parent="1" vertex="1">
                    <mxGeometry x="-1560" y="300" width="120" height="60" as="geometry"/>
                </mxCell>
                <mxCell id="310" value="&lt;span style=&quot;color: rgb(255 , 255 , 255)&quot;&gt;&lt;font style=&quot;font-size: 18px&quot;&gt;Консервация&lt;/font&gt;&lt;/span&gt;" style="shape=partialRectangle;whiteSpace=wrap;html=1;bottom=1;right=1;left=1;top=0;fillColor=none;routingCenterX=-0.5;labelBackgroundColor=none;labelBorderColor=none;fontSize=30;fontColor=none;" parent="1" vertex="1">
                    <mxGeometry x="-1560" y="396" width="120" height="60" as="geometry"/>
                </mxCell>
                <mxCell id="311" value="&lt;span style=&quot;color: rgb(255 , 255 , 255)&quot;&gt;&lt;font style=&quot;font-size: 20px&quot;&gt;Бакалея&lt;/font&gt;&lt;/span&gt;" style="shape=partialRectangle;whiteSpace=wrap;html=1;bottom=1;right=1;left=1;top=0;fillColor=none;routingCenterX=-0.5;labelBackgroundColor=none;labelBorderColor=none;fontSize=30;fontColor=none;" parent="1" vertex="1">
                    <mxGeometry x="-1560" y="492" width="120" height="60" as="geometry"/>
                </mxCell>
                <mxCell id="312" value="&lt;span style=&quot;color: rgb(255 , 255 , 255)&quot;&gt;&lt;font style=&quot;font-size: 20px&quot;&gt;Хлебо&lt;br&gt;булочные&lt;/font&gt;&lt;/span&gt;" style="shape=partialRectangle;whiteSpace=wrap;html=1;bottom=1;right=1;left=1;top=0;fillColor=none;routingCenterX=-0.5;labelBackgroundColor=none;labelBorderColor=none;fontSize=30;fontColor=none;" parent="1" vertex="1">
                    <mxGeometry x="-1560" y="586" width="120" height="60" as="geometry"/>
                </mxCell>
                <mxCell id="313" value="&lt;span style=&quot;color: rgb(255 , 255 , 255)&quot;&gt;&lt;font style=&quot;font-size: 20px&quot;&gt;Молочные товары&lt;/font&gt;&lt;/span&gt;" style="shape=partialRectangle;whiteSpace=wrap;html=1;bottom=1;right=1;left=1;top=0;fillColor=none;routingCenterX=-0.5;labelBackgroundColor=none;labelBorderColor=none;fontSize=30;fontColor=none;" parent="1" vertex="1">
                    <mxGeometry x="-1560" y="684" width="120" height="60" as="geometry"/>
                </mxCell>
                <mxCell id="314" value="&lt;span style=&quot;color: rgb(255 , 255 , 255)&quot;&gt;&lt;font style=&quot;font-size: 18px&quot;&gt;Гастрономия&lt;/font&gt;&lt;/span&gt;" style="shape=partialRectangle;whiteSpace=wrap;html=1;bottom=1;right=1;left=1;top=0;fillColor=none;routingCenterX=-0.5;labelBackgroundColor=none;labelBorderColor=none;fontSize=30;fontColor=none;" parent="1" vertex="1">
                    <mxGeometry x="-1560" y="780" width="120" height="60" as="geometry"/>
                </mxCell>
                <mxCell id="315" value="&lt;font style=&quot;font-size: 10px&quot;&gt;&amp;nbsp; &amp;nbsp; &amp;nbsp; &amp;nbsp; &amp;nbsp; &amp;nbsp; &amp;nbsp; Производитель&lt;/font&gt;" style="html=1;whiteSpace=wrap;container=1;recursiveResize=0;collapsible=0;labelBackgroundColor=none;labelBorderColor=none;fontSize=30;fontColor=#FFFFFF;align=center;" parent="1" vertex="1">
                    <mxGeometry x="-1428" y="216" width="120" height="60" as="geometry"/>
                </mxCell>
                <mxCell id="316" value="" style="triangle;html=1;whiteSpace=wrap;labelBackgroundColor=none;labelBorderColor=none;fontSize=30;fontColor=#ffffff;direction=south;fillColor=#1ba1e2;strokeColor=#006EAF;" parent="315" vertex="1">
                    <mxGeometry x="15" y="25" width="30" height="20" as="geometry"/>
                </mxCell>
                <mxCell id="317" value="&lt;font color=&quot;#ffffff&quot; style=&quot;font-size: 15px&quot;&gt;ООО &quot;Консерв&quot;&lt;/font&gt;" style="shape=partialRectangle;whiteSpace=wrap;html=1;bottom=1;right=1;left=1;top=0;fillColor=none;routingCenterX=-0.5;labelBackgroundColor=none;labelBorderColor=none;fontSize=30;fontColor=none;" parent="1" vertex="1">
                    <mxGeometry x="-1428" y="300" width="120" height="60" as="geometry"/>
                </mxCell>
                <mxCell id="318" value="&lt;span style=&quot;color: rgb(255 , 255 , 255)&quot;&gt;&lt;font style=&quot;font-size: 15px&quot;&gt;ИП Лесная Д.А.&lt;/font&gt;&lt;/span&gt;" style="shape=partialRectangle;whiteSpace=wrap;html=1;bottom=1;right=1;left=1;top=0;fillColor=none;routingCenterX=-0.5;labelBackgroundColor=none;labelBorderColor=none;fontSize=30;fontColor=none;" parent="1" vertex="1">
                    <mxGeometry x="-1428" y="396" width="120" height="60" as="geometry"/>
                </mxCell>
                <mxCell id="319" value="&lt;span style=&quot;color: rgb(255 , 255 , 255)&quot;&gt;&lt;font style=&quot;font-size: 15px&quot;&gt;ООО &quot;Прибор&quot;&lt;/font&gt;&lt;/span&gt;" style="shape=partialRectangle;whiteSpace=wrap;html=1;bottom=1;right=1;left=1;top=0;fillColor=none;routingCenterX=-0.5;labelBackgroundColor=none;labelBorderColor=none;fontSize=30;fontColor=none;" parent="1" vertex="1">
                    <mxGeometry x="-1428" y="492" width="120" height="60" as="geometry"/>
                </mxCell>
                <mxCell id="320" value="&lt;font color=&quot;#ffffff&quot; style=&quot;font-size: 15px&quot;&gt;ООО &quot;Милки&quot;&lt;/font&gt;" style="shape=partialRectangle;whiteSpace=wrap;html=1;bottom=1;right=1;left=1;top=0;fillColor=none;routingCenterX=-0.5;labelBackgroundColor=none;labelBorderColor=none;fontSize=30;fontColor=none;" parent="1" vertex="1">
                    <mxGeometry x="-1428" y="586" width="120" height="60" as="geometry"/>
                </mxCell>
                <mxCell id="321" value="&lt;span style=&quot;color: rgb(255 , 255 , 255)&quot;&gt;&lt;font style=&quot;font-size: 15px&quot;&gt;ИП Попова К.Р.&lt;/font&gt;&lt;/span&gt;" style="shape=partialRectangle;whiteSpace=wrap;html=1;bottom=1;right=1;left=1;top=0;fillColor=none;routingCenterX=-0.5;labelBackgroundColor=none;labelBorderColor=none;fontSize=30;fontColor=none;" parent="1" vertex="1">
                    <mxGeometry x="-1428" y="684" width="120" height="60" as="geometry"/>
                </mxCell>
                <mxCell id="322" value="&lt;span style=&quot;color: rgb(255 , 255 , 255)&quot;&gt;&lt;font style=&quot;font-size: 13px&quot;&gt;ИП Кепелов У.М.&lt;/font&gt;&lt;/span&gt;" style="shape=partialRectangle;whiteSpace=wrap;html=1;bottom=1;right=1;left=1;top=0;fillColor=none;routingCenterX=-0.5;labelBackgroundColor=none;labelBorderColor=none;fontSize=30;fontColor=none;" parent="1" vertex="1">
                    <mxGeometry x="-1428" y="780" width="120" height="60" as="geometry"/>
                </mxCell>
                <mxCell id="332" value="&lt;font style=&quot;font-size: 14px&quot;&gt;&amp;nbsp; &amp;nbsp; &amp;nbsp; &amp;nbsp; &amp;nbsp; Поставщик&lt;/font&gt;" style="html=1;whiteSpace=wrap;container=1;recursiveResize=0;collapsible=0;labelBackgroundColor=none;labelBorderColor=none;fontSize=30;fontColor=#FFFFFF;align=center;" parent="1" vertex="1">
                    <mxGeometry x="-1296" y="216" width="120" height="60" as="geometry"/>
                </mxCell>
                <mxCell id="333" value="" style="triangle;html=1;whiteSpace=wrap;labelBackgroundColor=none;labelBorderColor=none;fontSize=30;fontColor=#ffffff;direction=south;fillColor=#1ba1e2;strokeColor=#006EAF;" parent="332" vertex="1">
                    <mxGeometry x="15" y="25" width="30" height="20" as="geometry"/>
                </mxCell>
                <mxCell id="334" value="&lt;font color=&quot;#ffffff&quot; style=&quot;font-size: 15px&quot;&gt;ООО &quot;Консерв&quot;&lt;/font&gt;" style="shape=partialRectangle;whiteSpace=wrap;html=1;bottom=1;right=1;left=1;top=0;fillColor=none;routingCenterX=-0.5;labelBackgroundColor=none;labelBorderColor=none;fontSize=30;fontColor=none;" parent="1" vertex="1">
                    <mxGeometry x="-1296" y="300" width="120" height="60" as="geometry"/>
                </mxCell>
                <mxCell id="335" value="&lt;span style=&quot;color: rgb(255 , 255 , 255)&quot;&gt;&lt;font style=&quot;font-size: 15px&quot;&gt;ООО &quot;Еда&quot;&lt;/font&gt;&lt;/span&gt;" style="shape=partialRectangle;whiteSpace=wrap;html=1;bottom=1;right=1;left=1;top=0;fillColor=none;routingCenterX=-0.5;labelBackgroundColor=none;labelBorderColor=none;fontSize=30;fontColor=none;" parent="1" vertex="1">
                    <mxGeometry x="-1296" y="396" width="120" height="60" as="geometry"/>
                </mxCell>
                <mxCell id="336" value="&lt;span style=&quot;color: rgb(255 , 255 , 255) ; font-size: 15px&quot;&gt;ООО &quot;Крупа&quot;&lt;/span&gt;" style="shape=partialRectangle;whiteSpace=wrap;html=1;bottom=1;right=1;left=1;top=0;fillColor=none;routingCenterX=-0.5;labelBackgroundColor=none;labelBorderColor=none;fontSize=30;fontColor=none;" parent="1" vertex="1">
                    <mxGeometry x="-1296" y="492" width="120" height="60" as="geometry"/>
                </mxCell>
                <mxCell id="337" value="&lt;span style=&quot;color: rgb(255 , 255 , 255) ; font-size: 15px&quot;&gt;ООО &quot;Еда&quot;&lt;/span&gt;" style="shape=partialRectangle;whiteSpace=wrap;html=1;bottom=1;right=1;left=1;top=0;fillColor=none;routingCenterX=-0.5;labelBackgroundColor=none;labelBorderColor=none;fontSize=30;fontColor=none;" parent="1" vertex="1">
                    <mxGeometry x="-1296" y="586" width="120" height="60" as="geometry"/>
                </mxCell>
                <mxCell id="338" value="&lt;span style=&quot;color: rgb(255 , 255 , 255) ; font-size: 15px&quot;&gt;ООО &quot;Еда&quot;&lt;/span&gt;" style="shape=partialRectangle;whiteSpace=wrap;html=1;bottom=1;right=1;left=1;top=0;fillColor=none;routingCenterX=-0.5;labelBackgroundColor=none;labelBorderColor=none;fontSize=30;fontColor=none;" parent="1" vertex="1">
                    <mxGeometry x="-1296" y="684" width="120" height="60" as="geometry"/>
                </mxCell>
                <mxCell id="339" value="&lt;span style=&quot;color: rgb(255 , 255 , 255)&quot;&gt;&lt;font style=&quot;font-size: 13px&quot;&gt;ИП Средняя Р.М.&lt;/font&gt;&lt;/span&gt;" style="shape=partialRectangle;whiteSpace=wrap;html=1;bottom=1;right=1;left=1;top=0;fillColor=none;routingCenterX=-0.5;labelBackgroundColor=none;labelBorderColor=none;fontSize=30;fontColor=none;" parent="1" vertex="1">
                    <mxGeometry x="-1296" y="780" width="120" height="60" as="geometry"/>
                </mxCell>
                <mxCell id="348" value="&lt;font style=&quot;font-size: 14px&quot;&gt;&amp;nbsp; &amp;nbsp;Тара&lt;/font&gt;" style="html=1;whiteSpace=wrap;container=1;recursiveResize=0;collapsible=0;labelBackgroundColor=none;labelBorderColor=none;fontSize=30;fontColor=#FFFFFF;align=center;" parent="1" vertex="1">
                    <mxGeometry x="-1164" y="216" width="120" height="60" as="geometry"/>
                </mxCell>
                <mxCell id="349" value="" style="triangle;html=1;whiteSpace=wrap;labelBackgroundColor=none;labelBorderColor=none;fontSize=30;fontColor=#ffffff;direction=south;fillColor=#1ba1e2;strokeColor=#006EAF;" parent="348" vertex="1">
                    <mxGeometry x="15" y="25" width="30" height="20" as="geometry"/>
                </mxCell>
                <mxCell id="350" value="&lt;font color=&quot;#ffffff&quot; style=&quot;font-size: 15px&quot;&gt;палетты&lt;/font&gt;" style="shape=partialRectangle;whiteSpace=wrap;html=1;bottom=1;right=1;left=1;top=0;fillColor=none;routingCenterX=-0.5;labelBackgroundColor=none;labelBorderColor=none;fontSize=30;fontColor=none;" parent="1" vertex="1">
                    <mxGeometry x="-1164" y="300" width="120" height="60" as="geometry"/>
                </mxCell>
                <mxCell id="351" value="&lt;span style=&quot;color: rgb(255 , 255 , 255)&quot;&gt;&lt;font style=&quot;font-size: 15px&quot;&gt;палетты&lt;/font&gt;&lt;/span&gt;" style="shape=partialRectangle;whiteSpace=wrap;html=1;bottom=1;right=1;left=1;top=0;fillColor=none;routingCenterX=-0.5;labelBackgroundColor=none;labelBorderColor=none;fontSize=30;fontColor=none;" parent="1" vertex="1">
                    <mxGeometry x="-1164" y="396" width="120" height="60" as="geometry"/>
                </mxCell>
                <mxCell id="352" value="&lt;span style=&quot;color: rgb(255 , 255 , 255) ; font-size: 15px&quot;&gt;коробы&amp;nbsp;&lt;/span&gt;" style="shape=partialRectangle;whiteSpace=wrap;html=1;bottom=1;right=1;left=1;top=0;fillColor=none;routingCenterX=-0.5;labelBackgroundColor=none;labelBorderColor=none;fontSize=30;fontColor=none;" parent="1" vertex="1">
                    <mxGeometry x="-1164" y="492" width="120" height="60" as="geometry"/>
                </mxCell>
                <mxCell id="353" value="&lt;span style=&quot;color: rgb(255 , 255 , 255) ; font-size: 15px&quot;&gt;палетты&lt;/span&gt;" style="shape=partialRectangle;whiteSpace=wrap;html=1;bottom=1;right=1;left=1;top=0;fillColor=none;routingCenterX=-0.5;labelBackgroundColor=none;labelBorderColor=none;fontSize=30;fontColor=none;" parent="1" vertex="1">
                    <mxGeometry x="-1164" y="586" width="120" height="60" as="geometry"/>
                </mxCell>
                <mxCell id="354" value="&lt;font color=&quot;#ffffff&quot;&gt;&lt;span style=&quot;font-size: 15px&quot;&gt;коробы&lt;/span&gt;&lt;/font&gt;" style="shape=partialRectangle;whiteSpace=wrap;html=1;bottom=1;right=1;left=1;top=0;fillColor=none;routingCenterX=-0.5;labelBackgroundColor=none;labelBorderColor=none;fontSize=30;fontColor=none;" parent="1" vertex="1">
                    <mxGeometry x="-1164" y="684" width="120" height="60" as="geometry"/>
                </mxCell>
                <mxCell id="355" value="&lt;span style=&quot;color: rgb(255 , 255 , 255)&quot;&gt;&lt;font style=&quot;font-size: 13px&quot;&gt;шоу-боксы&lt;/font&gt;&lt;/span&gt;" style="shape=partialRectangle;whiteSpace=wrap;html=1;bottom=1;right=1;left=1;top=0;fillColor=none;routingCenterX=-0.5;labelBackgroundColor=none;labelBorderColor=none;fontSize=30;fontColor=none;" parent="1" vertex="1">
                    <mxGeometry x="-1164" y="780" width="120" height="60" as="geometry"/>
                </mxCell>
                <mxCell id="356" value="&lt;font style=&quot;font-size: 14px&quot;&gt;&amp;nbsp; &amp;nbsp; &amp;nbsp; &amp;nbsp; &amp;nbsp;Фасовка&lt;/font&gt;" style="html=1;whiteSpace=wrap;container=1;recursiveResize=0;collapsible=0;labelBackgroundColor=none;labelBorderColor=none;fontSize=30;fontColor=#FFFFFF;align=center;" parent="1" vertex="1">
                    <mxGeometry x="-1032" y="216" width="120" height="60" as="geometry"/>
                </mxCell>
                <mxCell id="357" value="" style="triangle;html=1;whiteSpace=wrap;labelBackgroundColor=none;labelBorderColor=none;fontSize=30;fontColor=#ffffff;direction=south;fillColor=#1ba1e2;strokeColor=#006EAF;" parent="356" vertex="1">
                    <mxGeometry x="15" y="25" width="30" height="20" as="geometry"/>
                </mxCell>
                <mxCell id="358" value="&lt;font color=&quot;#ffffff&quot; style=&quot;font-size: 15px&quot;&gt;10 кг&lt;/font&gt;" style="shape=partialRectangle;whiteSpace=wrap;html=1;bottom=1;right=1;left=1;top=0;fillColor=none;routingCenterX=-0.5;labelBackgroundColor=none;labelBorderColor=none;fontSize=30;fontColor=none;" parent="1" vertex="1">
                    <mxGeometry x="-1032" y="300" width="120" height="60" as="geometry"/>
                </mxCell>
                <mxCell id="359" value="&lt;span style=&quot;color: rgb(255 , 255 , 255)&quot;&gt;&lt;font style=&quot;font-size: 15px&quot;&gt;1000 шт&lt;/font&gt;&lt;/span&gt;" style="shape=partialRectangle;whiteSpace=wrap;html=1;bottom=1;right=1;left=1;top=0;fillColor=none;routingCenterX=-0.5;labelBackgroundColor=none;labelBorderColor=none;fontSize=30;fontColor=none;" parent="1" vertex="1">
                    <mxGeometry x="-1032" y="396" width="120" height="60" as="geometry"/>
                </mxCell>
                <mxCell id="360" value="&lt;span style=&quot;color: rgb(255 , 255 , 255) ; font-size: 15px&quot;&gt;1500 шт&lt;/span&gt;" style="shape=partialRectangle;whiteSpace=wrap;html=1;bottom=1;right=1;left=1;top=0;fillColor=none;routingCenterX=-0.5;labelBackgroundColor=none;labelBorderColor=none;fontSize=30;fontColor=none;" parent="1" vertex="1">
                    <mxGeometry x="-1032" y="492" width="120" height="60" as="geometry"/>
                </mxCell>
                <mxCell id="361" value="&lt;font color=&quot;#ffffff&quot;&gt;&lt;span style=&quot;font-size: 15px&quot;&gt;2000 шт&lt;/span&gt;&lt;/font&gt;" style="shape=partialRectangle;whiteSpace=wrap;html=1;bottom=1;right=1;left=1;top=0;fillColor=none;routingCenterX=-0.5;labelBackgroundColor=none;labelBorderColor=none;fontSize=30;fontColor=none;" parent="1" vertex="1">
                    <mxGeometry x="-1032" y="586" width="120" height="60" as="geometry"/>
                </mxCell>
                <mxCell id="362" value="&lt;font color=&quot;#ffffff&quot;&gt;&lt;span style=&quot;font-size: 15px&quot;&gt;250 шт&lt;/span&gt;&lt;/font&gt;" style="shape=partialRectangle;whiteSpace=wrap;html=1;bottom=1;right=1;left=1;top=0;fillColor=none;routingCenterX=-0.5;labelBackgroundColor=none;labelBorderColor=none;fontSize=30;fontColor=none;" parent="1" vertex="1">
                    <mxGeometry x="-1032" y="684" width="120" height="60" as="geometry"/>
                </mxCell>
                <mxCell id="363" value="&lt;span style=&quot;color: rgb(255 , 255 , 255)&quot;&gt;&lt;font style=&quot;font-size: 15px&quot;&gt;400 шт&lt;/font&gt;&lt;/span&gt;" style="shape=partialRectangle;whiteSpace=wrap;html=1;bottom=1;right=1;left=1;top=0;fillColor=none;routingCenterX=-0.5;labelBackgroundColor=none;labelBorderColor=none;fontSize=30;fontColor=none;" parent="1" vertex="1">
                    <mxGeometry x="-1032" y="780" width="120" height="60" as="geometry"/>
                </mxCell>
                <mxCell id="364" value="&lt;font style=&quot;font-size: 14px&quot;&gt;&amp;nbsp; &amp;nbsp; &amp;nbsp; &amp;nbsp; &amp;nbsp;Обьем&lt;/font&gt;" style="html=1;whiteSpace=wrap;container=1;recursiveResize=0;collapsible=0;labelBackgroundColor=none;labelBorderColor=none;fontSize=30;fontColor=#FFFFFF;align=center;" parent="1" vertex="1">
                    <mxGeometry x="-900" y="216" width="120" height="60" as="geometry"/>
                </mxCell>
                <mxCell id="365" value="" style="triangle;html=1;whiteSpace=wrap;labelBackgroundColor=none;labelBorderColor=none;fontSize=30;fontColor=#FFFFFF;" parent="364" vertex="1">
                    <mxGeometry x="20" y="20" width="20" height="30" as="geometry"/>
                </mxCell>
                <mxCell id="372" value="&lt;font style=&quot;font-size: 14px&quot;&gt;&amp;nbsp; &amp;nbsp; &amp;nbsp; &amp;nbsp; &amp;nbsp;Вес&lt;/font&gt;" style="html=1;whiteSpace=wrap;container=1;recursiveResize=0;collapsible=0;labelBackgroundColor=none;labelBorderColor=none;fontSize=30;fontColor=#FFFFFF;align=center;" parent="1" vertex="1">
                    <mxGeometry x="-768" y="216" width="120" height="60" as="geometry"/>
                </mxCell>
                <mxCell id="373" value="" style="triangle;html=1;whiteSpace=wrap;labelBackgroundColor=none;labelBorderColor=none;fontSize=30;fontColor=#ffffff;fillColor=#1ba1e2;strokeColor=#006EAF;direction=south;" parent="372" vertex="1">
                    <mxGeometry x="15" y="25" width="30" height="20" as="geometry"/>
                </mxCell>
                <mxCell id="374" value="&lt;font color=&quot;#ffffff&quot; style=&quot;font-size: 15px&quot;&gt;10 кг&lt;/font&gt;" style="shape=partialRectangle;whiteSpace=wrap;html=1;bottom=1;right=1;left=1;top=0;fillColor=none;routingCenterX=-0.5;labelBackgroundColor=none;labelBorderColor=none;fontSize=30;fontColor=none;" parent="1" vertex="1">
                    <mxGeometry x="-768" y="300" width="120" height="60" as="geometry"/>
                </mxCell>
                <mxCell id="375" value="&lt;span style=&quot;color: rgb(255 , 255 , 255)&quot;&gt;&lt;font style=&quot;font-size: 15px&quot;&gt;1000 шт&lt;/font&gt;&lt;/span&gt;" style="shape=partialRectangle;whiteSpace=wrap;html=1;bottom=1;right=1;left=1;top=0;fillColor=none;routingCenterX=-0.5;labelBackgroundColor=none;labelBorderColor=none;fontSize=30;fontColor=none;" parent="1" vertex="1">
                    <mxGeometry x="-768" y="396" width="120" height="60" as="geometry"/>
                </mxCell>
                <mxCell id="376" value="&lt;span style=&quot;color: rgb(255 , 255 , 255) ; font-size: 15px&quot;&gt;1500 шт&lt;/span&gt;" style="shape=partialRectangle;whiteSpace=wrap;html=1;bottom=1;right=1;left=1;top=0;fillColor=none;routingCenterX=-0.5;labelBackgroundColor=none;labelBorderColor=none;fontSize=30;fontColor=none;" parent="1" vertex="1">
                    <mxGeometry x="-768" y="492" width="120" height="60" as="geometry"/>
                </mxCell>
                <mxCell id="377" value="&lt;font color=&quot;#ffffff&quot;&gt;&lt;span style=&quot;font-size: 15px&quot;&gt;2000 шт&lt;/span&gt;&lt;/font&gt;" style="shape=partialRectangle;whiteSpace=wrap;html=1;bottom=1;right=1;left=1;top=0;fillColor=none;routingCenterX=-0.5;labelBackgroundColor=none;labelBorderColor=none;fontSize=30;fontColor=none;" parent="1" vertex="1">
                    <mxGeometry x="-768" y="586" width="120" height="60" as="geometry"/>
                </mxCell>
                <mxCell id="378" value="&lt;font color=&quot;#ffffff&quot;&gt;&lt;span style=&quot;font-size: 15px&quot;&gt;250 шт&lt;/span&gt;&lt;/font&gt;" style="shape=partialRectangle;whiteSpace=wrap;html=1;bottom=1;right=1;left=1;top=0;fillColor=none;routingCenterX=-0.5;labelBackgroundColor=none;labelBorderColor=none;fontSize=30;fontColor=none;" parent="1" vertex="1">
                    <mxGeometry x="-768" y="684" width="120" height="60" as="geometry"/>
                </mxCell>
                <mxCell id="379" value="&lt;span style=&quot;color: rgb(255 , 255 , 255)&quot;&gt;&lt;font style=&quot;font-size: 15px&quot;&gt;400 шт&lt;/font&gt;&lt;/span&gt;" style="shape=partialRectangle;whiteSpace=wrap;html=1;bottom=1;right=1;left=1;top=0;fillColor=none;routingCenterX=-0.5;labelBackgroundColor=none;labelBorderColor=none;fontSize=30;fontColor=none;" parent="1" vertex="1">
                    <mxGeometry x="-768" y="780" width="120" height="60" as="geometry"/>
                </mxCell>
                <mxCell id="380" value="&lt;font style=&quot;font-size: 14px&quot;&gt;&amp;nbsp; &amp;nbsp; &amp;nbsp; &amp;nbsp; &amp;nbsp;Срок год-ти&lt;/font&gt;" style="html=1;whiteSpace=wrap;container=1;recursiveResize=0;collapsible=0;labelBackgroundColor=none;labelBorderColor=none;fontSize=30;fontColor=#FFFFFF;align=center;" parent="1" vertex="1">
                    <mxGeometry x="-636" y="216" width="120" height="60" as="geometry"/>
                </mxCell>
                <mxCell id="381" value="" style="triangle;html=1;whiteSpace=wrap;labelBackgroundColor=none;labelBorderColor=none;fontSize=30;fontColor=#ffffff;fillColor=#1ba1e2;strokeColor=#006EAF;direction=south;" parent="380" vertex="1">
                    <mxGeometry x="3" y="25" width="30" height="20" as="geometry"/>
                </mxCell>
                <mxCell id="382" value="&lt;font color=&quot;#ffffff&quot;&gt;&lt;span style=&quot;font-size: 15px&quot;&gt;15 дней&lt;/span&gt;&lt;/font&gt;" style="shape=partialRectangle;whiteSpace=wrap;html=1;bottom=1;right=1;left=1;top=0;fillColor=none;routingCenterX=-0.5;labelBackgroundColor=none;labelBorderColor=none;fontSize=30;fontColor=none;" parent="1" vertex="1">
                    <mxGeometry x="-636" y="300" width="120" height="60" as="geometry"/>
                </mxCell>
                <mxCell id="383" value="&lt;span style=&quot;color: rgb(255 , 255 , 255)&quot;&gt;&lt;font style=&quot;font-size: 15px&quot;&gt;2 года&lt;/font&gt;&lt;/span&gt;" style="shape=partialRectangle;whiteSpace=wrap;html=1;bottom=1;right=1;left=1;top=0;fillColor=none;routingCenterX=-0.5;labelBackgroundColor=none;labelBorderColor=none;fontSize=30;fontColor=none;" parent="1" vertex="1">
                    <mxGeometry x="-636" y="396" width="120" height="60" as="geometry"/>
                </mxCell>
                <mxCell id="384" value="&lt;span style=&quot;color: rgb(255 , 255 , 255) ; font-size: 15px&quot;&gt;10 дней&lt;/span&gt;" style="shape=partialRectangle;whiteSpace=wrap;html=1;bottom=1;right=1;left=1;top=0;fillColor=none;routingCenterX=-0.5;labelBackgroundColor=none;labelBorderColor=none;fontSize=30;fontColor=none;" parent="1" vertex="1">
                    <mxGeometry x="-636" y="492" width="120" height="60" as="geometry"/>
                </mxCell>
                <mxCell id="385" value="&lt;font color=&quot;#ffffff&quot;&gt;&lt;span style=&quot;font-size: 15px&quot;&gt;5 дней&lt;/span&gt;&lt;/font&gt;" style="shape=partialRectangle;whiteSpace=wrap;html=1;bottom=1;right=1;left=1;top=0;fillColor=none;routingCenterX=-0.5;labelBackgroundColor=none;labelBorderColor=none;fontSize=30;fontColor=none;" parent="1" vertex="1">
                    <mxGeometry x="-636" y="586" width="120" height="60" as="geometry"/>
                </mxCell>
                <mxCell id="386" value="&lt;font color=&quot;#ffffff&quot;&gt;&lt;span style=&quot;font-size: 15px&quot;&gt;14 дней&lt;/span&gt;&lt;/font&gt;" style="shape=partialRectangle;whiteSpace=wrap;html=1;bottom=1;right=1;left=1;top=0;fillColor=none;routingCenterX=-0.5;labelBackgroundColor=none;labelBorderColor=none;fontSize=30;fontColor=none;" parent="1" vertex="1">
                    <mxGeometry x="-636" y="684" width="120" height="60" as="geometry"/>
                </mxCell>
                <mxCell id="387" value="&lt;span style=&quot;color: rgb(255 , 255 , 255)&quot;&gt;&lt;font style=&quot;font-size: 15px&quot;&gt;2 месяцв&lt;/font&gt;&lt;/span&gt;" style="shape=partialRectangle;whiteSpace=wrap;html=1;bottom=1;right=1;left=1;top=0;fillColor=none;routingCenterX=-0.5;labelBackgroundColor=none;labelBorderColor=none;fontSize=30;fontColor=none;" parent="1" vertex="1">
                    <mxGeometry x="-636" y="780" width="120" height="60" as="geometry"/>
                </mxCell>
                <mxCell id="388" value="&lt;font style=&quot;font-size: 14px&quot;&gt;&amp;nbsp; &amp;nbsp; &amp;nbsp; &amp;nbsp; &amp;nbsp;Изобр-ие&lt;/font&gt;" style="html=1;whiteSpace=wrap;container=1;recursiveResize=0;collapsible=0;labelBackgroundColor=none;labelBorderColor=none;fontSize=30;fontColor=#FFFFFF;align=center;" parent="1" vertex="1">
                    <mxGeometry x="-504" y="216" width="120" height="60" as="geometry"/>
                </mxCell>
                <mxCell id="389" value="" style="triangle;html=1;whiteSpace=wrap;labelBackgroundColor=none;labelBorderColor=none;fontSize=30;fontColor=#FFFFFF;" parent="388" vertex="1">
                    <mxGeometry x="20" y="20" width="20" height="30" as="geometry"/>
                </mxCell>
                <mxCell id="413" value="" style="shape=link;html=1;fontSize=40;fontColor=#000000;width=258;" parent="1" edge="1">
                    <mxGeometry width="100" relative="1" as="geometry">
                        <mxPoint x="-1572" y="-936" as="sourcePoint"/>
                        <mxPoint x="-1472" y="-936" as="targetPoint"/>
                    </mxGeometry>
                </mxCell>
                <mxCell id="416" value="&lt;div class=&quot;content-title-small index-animate h2&quot; style=&quot;box-sizing: border-box ; outline: none ; font-family: &amp;#34;gothampro&amp;#34; ; font-stretch: normal ; line-height: 1.1em ; margin: 0px 0px 6px ; padding: 0px ; vertical-align: baseline ; border: 0px ; color: rgb(255 , 255 , 255) ; text-transform: uppercase ; position: relative ; left: 0px ; font-size: 39px ; letter-spacing: -0.025em&quot;&gt;&lt;font style=&quot;font-size: 39px&quot;&gt;ДИСТРИБУТОР FMCG&lt;span class=&quot;Apple-converted-space&quot;&gt;&amp;nbsp;&lt;/span&gt;&lt;/font&gt;&lt;/div&gt;&lt;div class=&quot;content-title-big index-animate h1&quot; style=&quot;box-sizing: border-box ; outline: none ; font-family: &amp;#34;gothampro&amp;#34; ; font-weight: 600 ; font-stretch: normal ; line-height: 42px ; font-size: 39px ; margin: 0px 0px 35px -0.06em ; padding: 0px ; vertical-align: baseline ; border: 0px ; color: rgb(255 , 255 , 255) ; letter-spacing: -0.05em ; text-transform: uppercase ; position: relative ; left: 0px&quot;&gt;ООО КОРЗИНА&lt;/div&gt;" style="text;html=1;strokeColor=none;fillColor=none;align=left;verticalAlign=middle;whiteSpace=wrap;rounded=0;labelBackgroundColor=none;labelBorderColor=none;fontSize=40;fontColor=#000000;" parent="1" vertex="1">
                    <mxGeometry x="-1572" y="-1176" width="624" height="108" as="geometry"/>
                </mxCell>
                <mxCell id="417" value="&lt;div style=&quot;text-align: justify&quot;&gt;&lt;span style=&quot;color: rgb(174 , 207 , 255) ; font-family: &amp;#34;proxima nova&amp;#34; ; letter-spacing: -0.45px&quot;&gt;&lt;font style=&quot;font-size: 40px&quot;&gt;Группа компаний, владеющая и управляющая активами в сфере оптовой торговляи товарами повседневного спроса.&lt;/font&gt;&lt;/span&gt;&lt;/div&gt;" style="text;html=1;strokeColor=none;fillColor=none;align=center;verticalAlign=middle;whiteSpace=wrap;rounded=0;labelBackgroundColor=none;labelBorderColor=none;fontSize=39;fontColor=#66B2FF;" parent="1" vertex="1">
                    <mxGeometry x="-1572" y="-1056" width="696" height="246" as="geometry"/>
                </mxCell>
                <mxCell id="420" value="&lt;font style=&quot;font-size: 20px&quot;&gt;&amp;nbsp; &amp;nbsp; &amp;nbsp; &amp;nbsp;&lt;/font&gt;&lt;font style=&quot;font-size: 13px&quot;&gt;Добавлена в отчет&lt;/font&gt;" style="html=1;whiteSpace=wrap;container=1;recursiveResize=0;collapsible=0;labelBackgroundColor=none;labelBorderColor=none;fontSize=30;fontColor=#FFFFFF;" vertex="1" parent="1">
                    <mxGeometry x="-360" y="-384" width="180" height="60" as="geometry"/>
                </mxCell>
                <mxCell id="421" value="" style="triangle;html=1;whiteSpace=wrap;labelBackgroundColor=none;labelBorderColor=none;fontSize=30;fontColor=#ffffff;fillColor=#008a00;strokeColor=#005700;" vertex="1" parent="420">
                    <mxGeometry x="20" y="20" width="20" height="30" as="geometry"/>
                </mxCell>
                <mxCell id="422" value="&lt;font style=&quot;font-size: 20px&quot;&gt;&amp;nbsp; &amp;nbsp; &amp;nbsp; &amp;nbsp;&lt;/font&gt;&lt;font style=&quot;font-size: 13px&quot;&gt;Добавлена в отчет&lt;/font&gt;" style="html=1;whiteSpace=wrap;container=1;recursiveResize=0;collapsible=0;labelBackgroundColor=none;labelBorderColor=none;fontSize=30;fontColor=#FFFFFF;" vertex="1" parent="1">
                    <mxGeometry x="-360" y="-288" width="180" height="60" as="geometry"/>
                </mxCell>
                <mxCell id="423" value="" style="triangle;html=1;whiteSpace=wrap;labelBackgroundColor=none;labelBorderColor=none;fontSize=30;fontColor=#ffffff;fillColor=#008a00;strokeColor=#005700;" vertex="1" parent="422">
                    <mxGeometry x="20" y="20" width="20" height="30" as="geometry"/>
                </mxCell>
                <mxCell id="424" value="&lt;font style=&quot;font-size: 20px&quot;&gt;&amp;nbsp; &amp;nbsp; &amp;nbsp; &amp;nbsp;&lt;/font&gt;&lt;font style=&quot;font-size: 13px&quot;&gt;Добавить в отчет&lt;br&gt;&lt;/font&gt;" style="html=1;whiteSpace=wrap;container=1;recursiveResize=0;collapsible=0;labelBackgroundColor=none;labelBorderColor=none;fontSize=30;fontColor=#FFFFFF;" vertex="1" parent="1">
                    <mxGeometry x="-360" y="-192" width="180" height="60" as="geometry"/>
                </mxCell>
                <mxCell id="425" value="" style="triangle;html=1;whiteSpace=wrap;labelBackgroundColor=none;labelBorderColor=none;fontSize=30;fontColor=#ffffff;fillColor=#a20025;strokeColor=#6F0000;" vertex="1" parent="424">
                    <mxGeometry x="20" y="20" width="20" height="30" as="geometry"/>
                </mxCell>
                <mxCell id="426" value="&lt;font style=&quot;font-size: 20px&quot;&gt;&amp;nbsp; &amp;nbsp; &amp;nbsp; &amp;nbsp;&lt;/font&gt;&lt;font style=&quot;font-size: 13px&quot;&gt;Добавить в отчет&lt;br&gt;&lt;/font&gt;" style="html=1;whiteSpace=wrap;container=1;recursiveResize=0;collapsible=0;labelBackgroundColor=none;labelBorderColor=none;fontSize=30;fontColor=#FFFFFF;" vertex="1" parent="1">
                    <mxGeometry x="-360" y="-480" width="180" height="60" as="geometry"/>
                </mxCell>
                <mxCell id="427" value="" style="triangle;html=1;whiteSpace=wrap;labelBackgroundColor=none;labelBorderColor=none;fontSize=30;fontColor=#ffffff;fillColor=#a20025;strokeColor=#6F0000;" vertex="1" parent="426">
                    <mxGeometry x="20" y="20" width="20" height="30" as="geometry"/>
                </mxCell>
                <mxCell id="428" value="&lt;font style=&quot;font-size: 20px&quot;&gt;&amp;nbsp; &amp;nbsp; &amp;nbsp; &amp;nbsp;&lt;/font&gt;&lt;font style=&quot;font-size: 13px&quot;&gt;Добавить в отчет&lt;br&gt;&lt;/font&gt;" style="html=1;whiteSpace=wrap;container=1;recursiveResize=0;collapsible=0;labelBackgroundColor=none;labelBorderColor=none;fontSize=30;fontColor=#FFFFFF;" vertex="1" parent="1">
                    <mxGeometry x="-360" y="-96" width="180" height="60" as="geometry"/>
                </mxCell>
                <mxCell id="429" value="" style="triangle;html=1;whiteSpace=wrap;labelBackgroundColor=none;labelBorderColor=none;fontSize=30;fontColor=#ffffff;fillColor=#a20025;strokeColor=#6F0000;" vertex="1" parent="428">
                    <mxGeometry x="20" y="20" width="20" height="30" as="geometry"/>
                </mxCell>
                <mxCell id="430" value="&lt;font style=&quot;font-size: 20px&quot;&gt;&amp;nbsp; &amp;nbsp; &amp;nbsp; &amp;nbsp;&lt;/font&gt;&lt;font style=&quot;font-size: 13px&quot;&gt;Добавить в отчет&lt;br&gt;&lt;/font&gt;" style="html=1;whiteSpace=wrap;container=1;recursiveResize=0;collapsible=0;labelBackgroundColor=none;labelBorderColor=none;fontSize=30;fontColor=#FFFFFF;" vertex="1" parent="1">
                    <mxGeometry x="-360" width="180" height="60" as="geometry"/>
                </mxCell>
                <mxCell id="431" value="" style="triangle;html=1;whiteSpace=wrap;labelBackgroundColor=none;labelBorderColor=none;fontSize=30;fontColor=#ffffff;fillColor=#a20025;strokeColor=#6F0000;" vertex="1" parent="430">
                    <mxGeometry x="20" y="20" width="20" height="30" as="geometry"/>
                </mxCell>
                <mxCell id="448" value="&lt;font style=&quot;font-size: 15px&quot;&gt;&amp;nbsp; &amp;nbsp; &amp;nbsp; &amp;nbsp;Цена&lt;/font&gt;" style="html=1;whiteSpace=wrap;container=1;recursiveResize=0;collapsible=0;labelBackgroundColor=none;labelBorderColor=none;fontSize=30;fontColor=#FFFFFF;align=center;" vertex="1" parent="1">
                    <mxGeometry x="-372" y="216" width="120" height="60" as="geometry"/>
                </mxCell>
                <mxCell id="449" value="" style="triangle;html=1;whiteSpace=wrap;labelBackgroundColor=none;labelBorderColor=none;fontSize=30;fontColor=#ffffff;fillColor=#1ba1e2;strokeColor=#006EAF;direction=south;" vertex="1" parent="448">
                    <mxGeometry x="3" y="25" width="30" height="20" as="geometry"/>
                </mxCell>
                <mxCell id="450" value="&lt;font color=&quot;#ffffff&quot;&gt;&lt;span style=&quot;font-size: 15px&quot;&gt;100 руб&lt;/span&gt;&lt;/font&gt;" style="shape=partialRectangle;whiteSpace=wrap;html=1;bottom=1;right=1;left=1;top=0;fillColor=none;routingCenterX=-0.5;labelBackgroundColor=none;labelBorderColor=none;fontSize=30;fontColor=none;" vertex="1" parent="1">
                    <mxGeometry x="-372" y="300" width="120" height="60" as="geometry"/>
                </mxCell>
                <mxCell id="451" value="&lt;span style=&quot;color: rgb(255 , 255 , 255)&quot;&gt;&lt;font style=&quot;font-size: 15px&quot;&gt;345 руб&lt;/font&gt;&lt;/span&gt;" style="shape=partialRectangle;whiteSpace=wrap;html=1;bottom=1;right=1;left=1;top=0;fillColor=none;routingCenterX=-0.5;labelBackgroundColor=none;labelBorderColor=none;fontSize=30;fontColor=none;" vertex="1" parent="1">
                    <mxGeometry x="-372" y="396" width="120" height="60" as="geometry"/>
                </mxCell>
                <mxCell id="452" value="&lt;span style=&quot;color: rgb(255 , 255 , 255) ; font-size: 15px&quot;&gt;54 руб&lt;/span&gt;" style="shape=partialRectangle;whiteSpace=wrap;html=1;bottom=1;right=1;left=1;top=0;fillColor=none;routingCenterX=-0.5;labelBackgroundColor=none;labelBorderColor=none;fontSize=30;fontColor=none;" vertex="1" parent="1">
                    <mxGeometry x="-372" y="492" width="120" height="60" as="geometry"/>
                </mxCell>
                <mxCell id="453" value="&lt;font color=&quot;#ffffff&quot;&gt;&lt;span style=&quot;font-size: 15px&quot;&gt;90 руб&lt;/span&gt;&lt;/font&gt;" style="shape=partialRectangle;whiteSpace=wrap;html=1;bottom=1;right=1;left=1;top=0;fillColor=none;routingCenterX=-0.5;labelBackgroundColor=none;labelBorderColor=none;fontSize=30;fontColor=none;" vertex="1" parent="1">
                    <mxGeometry x="-372" y="586" width="120" height="60" as="geometry"/>
                </mxCell>
                <mxCell id="454" value="&lt;font color=&quot;#ffffff&quot;&gt;&lt;span style=&quot;font-size: 15px&quot;&gt;230 руб&lt;/span&gt;&lt;/font&gt;" style="shape=partialRectangle;whiteSpace=wrap;html=1;bottom=1;right=1;left=1;top=0;fillColor=none;routingCenterX=-0.5;labelBackgroundColor=none;labelBorderColor=none;fontSize=30;fontColor=none;" vertex="1" parent="1">
                    <mxGeometry x="-372" y="684" width="120" height="60" as="geometry"/>
                </mxCell>
                <mxCell id="455" value="&lt;span style=&quot;color: rgb(255 , 255 , 255)&quot;&gt;&lt;font style=&quot;font-size: 15px&quot;&gt;66 руб&lt;/font&gt;&lt;/span&gt;" style="shape=partialRectangle;whiteSpace=wrap;html=1;bottom=1;right=1;left=1;top=0;fillColor=none;routingCenterX=-0.5;labelBackgroundColor=none;labelBorderColor=none;fontSize=30;fontColor=none;" vertex="1" parent="1">
                    <mxGeometry x="-372" y="780" width="120" height="60" as="geometry"/>
                </mxCell>
                <mxCell id="468" value="" style="rounded=0;whiteSpace=wrap;html=1;" vertex="1" parent="1">
                    <mxGeometry x="-2010" y="1944" width="1896" height="648" as="geometry"/>
                </mxCell>
                <mxCell id="469" value="" style="rounded=0;whiteSpace=wrap;html=1;" vertex="1" parent="1">
                    <mxGeometry x="-1998" y="1956" width="1896" height="648" as="geometry"/>
                </mxCell>
                <mxCell id="470" value="" style="rounded=0;whiteSpace=wrap;html=1;fontSize=25;" vertex="1" parent="1">
                    <mxGeometry x="-1962" y="2028" width="252" height="552" as="geometry"/>
                </mxCell>
                <mxCell id="472" value="Товарные категории" style="rounded=1;whiteSpace=wrap;html=1;fontSize=25;" vertex="1" parent="1">
                    <mxGeometry x="-1914" y="2160" width="180" height="60" as="geometry"/>
                </mxCell>
                <mxCell id="473" value="Табличные отчеты" style="rounded=1;whiteSpace=wrap;html=1;fontSize=25;" vertex="1" parent="1">
                    <mxGeometry x="-1914" y="2274" width="180" height="60" as="geometry"/>
                </mxCell>
                <mxCell id="474" value="Графики и диаграммы&lt;span style=&quot;color: rgba(0 , 0 , 0 , 0) ; font-family: monospace ; font-size: 0px&quot;&gt;%3CmxGraphModel%3E%3Croot%3E%3CmxCell%20id%3D%220%22%2F%3E%3CmxCell%20id%3D%221%22%20parent%3D%220%22%2F%3E%3CmxCell%20id%3D%222%22%20value%3D%22%D0%A2%D0%BE%D0%B2%D0%B0%D1%80%D0%BD%D1%8B%D0%B5%20%D0%BA%D0%B0%D1%82%D0%B5%D0%B3%D0%BE%D1%80%D0%B8%D0%B8%22%20style%3D%22rounded%3D1%3BwhiteSpace%3Dwrap%3Bhtml%3D1%3BfontSize%3D25%3B%22%20vertex%3D%221%22%20parent%3D%221%22%3E%3CmxGeometry%20x%3D%22-1668%22%20y%3D%22-1140%22%20width%3D%22180%22%20height%3D%2260%22%20as%3D%22geometry%22%2F%3E%3C%2FmxCell%3E%3C%2Froot%3E%3C%2FmxGraphModel%3E&lt;/span&gt;" style="rounded=1;whiteSpace=wrap;html=1;fontSize=25;fillColor=#6a00ff;fontColor=#ffffff;strokeColor=#3700CC;" vertex="1" parent="1">
                    <mxGeometry x="-1914" y="2388" width="180" height="60" as="geometry"/>
                </mxCell>
                <mxCell id="475" value="Финансовые показатели" style="rounded=1;whiteSpace=wrap;html=1;fontSize=25;" vertex="1" parent="1">
                    <mxGeometry x="-1914" y="2496" width="180" height="60" as="geometry"/>
                </mxCell>
                <mxCell id="476" value="&lt;font style=&quot;font-size: 23px&quot;&gt;Список компаний&lt;/font&gt;" style="rounded=1;whiteSpace=wrap;html=1;fontSize=25;fontStyle=1;labelBackgroundColor=none;" vertex="1" parent="1">
                    <mxGeometry x="-1914" y="2052" width="180" height="60" as="geometry"/>
                </mxCell>
                <mxCell id="477" value="" style="ellipse;whiteSpace=wrap;html=1;aspect=fixed;fontSize=15;fillColor=none;" vertex="1" parent="1">
                    <mxGeometry x="-1470" y="2076" width="168" height="168" as="geometry"/>
                </mxCell>
                <mxCell id="478" value="&amp;nbsp; &amp;nbsp; Выбрать" style="html=1;whiteSpace=wrap;container=1;recursiveResize=0;collapsible=0;fontSize=15;fillColor=none;" vertex="1" parent="1">
                    <mxGeometry x="-1466" y="2274" width="160" height="70" as="geometry"/>
                </mxCell>
                <mxCell id="479" value="" style="triangle;html=1;whiteSpace=wrap;fontSize=15;fillColor=#a20025;fontColor=#ffffff;strokeColor=#6F0000;" vertex="1" parent="478">
                    <mxGeometry x="20" y="20" width="20" height="30" as="geometry"/>
                </mxCell>
                <mxCell id="481" value="" style="shape=manualInput;whiteSpace=wrap;html=1;fontSize=15;fillColor=none;" vertex="1" parent="1">
                    <mxGeometry x="-1038" y="2088" width="252" height="156" as="geometry"/>
                </mxCell>
                <mxCell id="482" value="&amp;nbsp; &amp;nbsp; &amp;nbsp; Выбрать" style="html=1;whiteSpace=wrap;container=1;recursiveResize=0;collapsible=0;fontSize=15;fillColor=none;" vertex="1" parent="1">
                    <mxGeometry x="-992" y="2269" width="160" height="70" as="geometry"/>
                </mxCell>
                <mxCell id="483" value="" style="triangle;html=1;whiteSpace=wrap;fontSize=15;fillColor=#a20025;fontColor=#ffffff;strokeColor=#6F0000;" vertex="1" parent="482">
                    <mxGeometry x="20" y="20" width="20" height="30" as="geometry"/>
                </mxCell>
                <mxCell id="495" value="&amp;nbsp; &amp;nbsp; &amp;nbsp; Выбрано" style="html=1;whiteSpace=wrap;container=1;recursiveResize=0;collapsible=0;fontSize=15;fillColor=none;" vertex="1" parent="1">
                    <mxGeometry x="-536" y="2269" width="160" height="70" as="geometry"/>
                </mxCell>
                <mxCell id="496" value="" style="triangle;html=1;whiteSpace=wrap;fontSize=15;fillColor=#00CC00;fontColor=#ffffff;strokeColor=#6F0000;direction=south;" vertex="1" parent="495">
                    <mxGeometry x="15" y="25" width="30" height="20" as="geometry"/>
                </mxCell>
                <mxCell id="498" value="" style="shape=manualInput;whiteSpace=wrap;html=1;fontSize=15;fillColor=#00CC00;" vertex="1" parent="1">
                    <mxGeometry x="-526" y="2400" width="152" height="128" as="geometry"/>
                </mxCell>
                <mxCell id="499" value="" style="shape=singleArrow;direction=north;whiteSpace=wrap;html=1;fontSize=15;" vertex="1" parent="1">
                    <mxGeometry x="-540" y="2434" width="60" height="100" as="geometry"/>
                </mxCell>
                <mxCell id="502" value="" style="shape=singleArrow;direction=north;whiteSpace=wrap;html=1;fontSize=15;" vertex="1" parent="1">
                    <mxGeometry x="-420" y="2394" width="60" height="140" as="geometry"/>
                </mxCell>
                <mxCell id="504" value="" style="shape=singleArrow;direction=north;whiteSpace=wrap;html=1;fontSize=15;" vertex="1" parent="1">
                    <mxGeometry x="-514" y="2418" width="72" height="116" as="geometry"/>
                </mxCell>
                <mxCell id="505" value="" style="shape=singleArrow;direction=north;whiteSpace=wrap;html=1;fontSize=15;" vertex="1" parent="1">
                    <mxGeometry x="-468" y="2406" width="60" height="128" as="geometry"/>
                </mxCell>
                <mxCell id="514" value="" style="shape=ext;double=1;rounded=1;whiteSpace=wrap;html=1;fontSize=15;fillColor=none;" vertex="1" parent="1">
                    <mxGeometry x="-554" y="2368" width="206" height="200" as="geometry"/>
                </mxCell>
                <mxCell id="515" value="" style="group" vertex="1" connectable="0" parent="1">
                    <mxGeometry x="-554" y="2052" width="188" height="198" as="geometry"/>
                </mxCell>
                <mxCell id="491" value="" style="shape=singleArrow;direction=north;whiteSpace=wrap;html=1;fontSize=15;fillColor=#60a917;fontColor=#ffffff;strokeColor=#2D7600;" vertex="1" parent="515">
                    <mxGeometry x="40" width="72" height="192" as="geometry"/>
                </mxCell>
                <mxCell id="492" value="" style="shape=singleArrow;direction=north;whiteSpace=wrap;html=1;fontSize=15;fillColor=#76608a;fontColor=#ffffff;strokeColor=#432D57;" vertex="1" parent="515">
                    <mxGeometry x="92" y="92" width="60" height="100" as="geometry"/>
                </mxCell>
                <mxCell id="507" value="" style="shape=singleArrow;direction=north;whiteSpace=wrap;html=1;fontSize=15;fillColor=#e3c800;fontColor=#000000;strokeColor=#B09500;" vertex="1" parent="515">
                    <mxGeometry y="78" width="60" height="120" as="geometry"/>
                </mxCell>
                <mxCell id="509" value="" style="shape=singleArrow;direction=north;whiteSpace=wrap;html=1;fontSize=15;fillColor=#e3c800;fontColor=#000000;strokeColor=#B09500;" vertex="1" parent="515">
                    <mxGeometry x="128" y="72" width="60" height="120" as="geometry"/>
                </mxCell>
                <mxCell id="519" value="" style="rounded=0;whiteSpace=wrap;html=1;fontSize=25;" vertex="1" parent="1">
                    <mxGeometry x="-1968" y="1028" width="252" height="552" as="geometry"/>
                </mxCell>
                <mxCell id="520" value="&lt;font style=&quot;font-size: 23px&quot;&gt;Список компаний&lt;/font&gt;" style="rounded=1;whiteSpace=wrap;html=1;fontSize=25;fontStyle=1;labelBackgroundColor=none;" vertex="1" parent="1">
                    <mxGeometry x="-1920" y="1052" width="180" height="60" as="geometry"/>
                </mxCell>
                <mxCell id="521" value="Табличные отчеты" style="rounded=1;whiteSpace=wrap;html=1;fontSize=25;fillColor=#f0a30a;fontColor=#000000;strokeColor=#BD7000;" vertex="1" parent="1">
                    <mxGeometry x="-1920" y="1274" width="180" height="60" as="geometry"/>
                </mxCell>
                <mxCell id="522" value="Графики и диаграммы&lt;span style=&quot;color: rgba(0 , 0 , 0 , 0) ; font-family: monospace ; font-size: 0px&quot;&gt;%3CmxGraphModel%3E%3Croot%3E%3CmxCell%20id%3D%220%22%2F%3E%3CmxCell%20id%3D%221%22%20parent%3D%220%22%2F%3E%3CmxCell%20id%3D%222%22%20value%3D%22%D0%A2%D0%BE%D0%B2%D0%B0%D1%80%D0%BD%D1%8B%D0%B5%20%D0%BA%D0%B0%D1%82%D0%B5%D0%B3%D0%BE%D1%80%D0%B8%D0%B8%22%20style%3D%22rounded%3D1%3BwhiteSpace%3Dwrap%3Bhtml%3D1%3BfontSize%3D25%3B%22%20vertex%3D%221%22%20parent%3D%221%22%3E%3CmxGeometry%20x%3D%22-1668%22%20y%3D%22-1140%22%20width%3D%22180%22%20height%3D%2260%22%20as%3D%22geometry%22%2F%3E%3C%2FmxCell%3E%3C%2Froot%3E%3C%2FmxGraphModel%3E&lt;/span&gt;" style="rounded=1;whiteSpace=wrap;html=1;fontSize=25;" vertex="1" parent="1">
                    <mxGeometry x="-1920" y="1388" width="180" height="60" as="geometry"/>
                </mxCell>
                <mxCell id="523" value="Финансовые показатели" style="rounded=1;whiteSpace=wrap;html=1;fontSize=25;" vertex="1" parent="1">
                    <mxGeometry x="-1920" y="1496" width="180" height="60" as="geometry"/>
                </mxCell>
                <mxCell id="526" value="Товарные категории" style="rounded=1;whiteSpace=wrap;html=1;fontSize=25;" vertex="1" parent="1">
                    <mxGeometry x="-1920" y="1164" width="180" height="60" as="geometry"/>
                </mxCell>
                <mxCell id="540" value="Продажи годовые" style="shape=table;childLayout=tableLayout;rowLines=0;columnLines=0;startSize=40;collapsible=0;recursiveResize=0;expand=0;pointerEvents=0;fontStyle=1;align=center;fontSize=15;fillColor=none;" vertex="1" parent="1">
                    <mxGeometry x="-1548" y="1028" width="400" height="400" as="geometry"/>
                </mxCell>
                <mxCell id="541" value="2022" style="swimlane;horizontal=0;points=[[0,0.5],[1,0.5]];portConstraint=eastwest;startSize=40;collapsible=0;recursiveResize=0;expand=0;pointerEvents=0;fontStyle=1;fontSize=15;fillColor=none;" vertex="1" parent="540">
                    <mxGeometry y="40" width="400" height="120" as="geometry"/>
                </mxCell>
                <mxCell id="542" value="Comp1" style="swimlane;connectable=0;startSize=24;collapsible=0;recursiveResize=0;expand=0;pointerEvents=0;fontSize=15;fillColor=none;" vertex="1" parent="541">
                    <mxGeometry x="40" width="128" height="120" as="geometry">
                        <mxRectangle width="128" height="120" as="alternateBounds"/>
                    </mxGeometry>
                </mxCell>
                <mxCell id="553" value="2563293 руб" style="text;strokeColor=none;fillColor=none;html=1;fontSize=15;fontStyle=1;verticalAlign=middle;align=center;" vertex="1" parent="542">
                    <mxGeometry x="12" y="56" width="100" height="40" as="geometry"/>
                </mxCell>
                <mxCell id="543" value="Comp2" style="swimlane;connectable=0;startSize=24;collapsible=0;recursiveResize=0;expand=0;pointerEvents=0;fontSize=15;fillColor=none;" vertex="1" parent="541">
                    <mxGeometry x="168" width="108" height="120" as="geometry">
                        <mxRectangle width="108" height="120" as="alternateBounds"/>
                    </mxGeometry>
                </mxCell>
                <mxCell id="544" value="Comp3" style="swimlane;connectable=0;startSize=24;collapsible=0;recursiveResize=0;expand=0;pointerEvents=0;fontSize=15;fillColor=none;" vertex="1" parent="541">
                    <mxGeometry x="276" width="124" height="120" as="geometry">
                        <mxRectangle width="124" height="120" as="alternateBounds"/>
                    </mxGeometry>
                </mxCell>
                <mxCell id="545" value="2021" style="swimlane;horizontal=0;points=[[0,0.5],[1,0.5]];portConstraint=eastwest;startSize=40;collapsible=0;recursiveResize=0;expand=0;pointerEvents=0;fontSize=15;fillColor=none;" vertex="1" parent="540">
                    <mxGeometry y="160" width="400" height="120" as="geometry"/>
                </mxCell>
                <mxCell id="546" value="" style="swimlane;connectable=0;startSize=0;collapsible=0;recursiveResize=0;expand=0;pointerEvents=0;fontSize=15;fillColor=none;" vertex="1" parent="545">
                    <mxGeometry x="40" width="128" height="120" as="geometry">
                        <mxRectangle width="128" height="120" as="alternateBounds"/>
                    </mxGeometry>
                </mxCell>
                <mxCell id="547" value="" style="swimlane;connectable=0;startSize=0;collapsible=0;recursiveResize=0;expand=0;pointerEvents=0;fontSize=15;fillColor=none;" vertex="1" parent="545">
                    <mxGeometry x="168" width="108" height="120" as="geometry">
                        <mxRectangle width="108" height="120" as="alternateBounds"/>
                    </mxGeometry>
                </mxCell>
                <mxCell id="557" value="768366 руб" style="text;strokeColor=none;fillColor=none;html=1;fontSize=15;fontStyle=1;verticalAlign=middle;align=center;" vertex="1" parent="547">
                    <mxGeometry x="4" y="36" width="100" height="40" as="geometry"/>
                </mxCell>
                <mxCell id="548" value="" style="swimlane;connectable=0;startSize=0;collapsible=0;recursiveResize=0;expand=0;pointerEvents=0;fontSize=15;fillColor=none;" vertex="1" parent="545">
                    <mxGeometry x="276" width="124" height="120" as="geometry">
                        <mxRectangle width="124" height="120" as="alternateBounds"/>
                    </mxGeometry>
                </mxCell>
                <mxCell id="560" value="877788 руб" style="text;strokeColor=none;fillColor=none;html=1;fontSize=15;fontStyle=1;verticalAlign=middle;align=center;" vertex="1" parent="548">
                    <mxGeometry x="12" y="40" width="100" height="40" as="geometry"/>
                </mxCell>
                <mxCell id="549" value="2020" style="swimlane;horizontal=0;points=[[0,0.5],[1,0.5]];portConstraint=eastwest;startSize=40;collapsible=0;recursiveResize=0;expand=0;pointerEvents=0;fontSize=15;fillColor=none;" vertex="1" parent="540">
                    <mxGeometry y="280" width="400" height="120" as="geometry"/>
                </mxCell>
                <mxCell id="550" value="" style="swimlane;connectable=0;startSize=0;collapsible=0;recursiveResize=0;expand=0;pointerEvents=0;fontSize=15;fillColor=none;" vertex="1" parent="549">
                    <mxGeometry x="40" width="128" height="120" as="geometry">
                        <mxRectangle width="128" height="120" as="alternateBounds"/>
                    </mxGeometry>
                </mxCell>
                <mxCell id="555" value="986556 руб" style="text;strokeColor=none;fillColor=none;html=1;fontSize=15;fontStyle=1;verticalAlign=middle;align=center;" vertex="1" parent="550">
                    <mxGeometry x="14" y="40" width="100" height="40" as="geometry"/>
                </mxCell>
                <mxCell id="551" value="" style="swimlane;connectable=0;startSize=0;collapsible=0;recursiveResize=0;expand=0;pointerEvents=0;fontSize=15;fillColor=none;" vertex="1" parent="549">
                    <mxGeometry x="168" width="108" height="120" as="geometry">
                        <mxRectangle width="108" height="120" as="alternateBounds"/>
                    </mxGeometry>
                </mxCell>
                <mxCell id="552" value="" style="swimlane;connectable=0;startSize=0;collapsible=0;recursiveResize=0;expand=0;pointerEvents=0;fontSize=15;fillColor=none;" vertex="1" parent="549">
                    <mxGeometry x="276" width="124" height="120" as="geometry">
                        <mxRectangle width="124" height="120" as="alternateBounds"/>
                    </mxGeometry>
                </mxCell>
                <mxCell id="558" value="2563293 руб" style="text;strokeColor=none;fillColor=none;html=1;fontSize=15;fontStyle=1;verticalAlign=middle;align=center;" vertex="1" parent="552">
                    <mxGeometry x="-100" y="40" width="100" height="40" as="geometry"/>
                </mxCell>
                <mxCell id="561" value="3425666 руб" style="text;strokeColor=none;fillColor=none;html=1;fontSize=15;fontStyle=1;verticalAlign=middle;align=center;" vertex="1" parent="552">
                    <mxGeometry x="12" y="40" width="100" height="40" as="geometry"/>
                </mxCell>
                <mxCell id="554" value="9876764 руб" style="text;strokeColor=none;fillColor=none;html=1;fontSize=15;fontStyle=1;verticalAlign=middle;align=center;" vertex="1" parent="1">
                    <mxGeometry x="-1380" y="1124" width="100" height="40" as="geometry"/>
                </mxCell>
                <mxCell id="556" value="13457 руб" style="text;strokeColor=none;fillColor=none;html=1;fontSize=15;fontStyle=1;verticalAlign=middle;align=center;" vertex="1" parent="1">
                    <mxGeometry x="-1496" y="1224" width="100" height="40" as="geometry"/>
                </mxCell>
                <mxCell id="559" value="9876764 руб" style="text;strokeColor=none;fillColor=none;html=1;fontSize=15;fontStyle=1;verticalAlign=middle;align=center;" vertex="1" parent="1">
                    <mxGeometry x="-1264" y="1124" width="100" height="40" as="geometry"/>
                </mxCell>
                <mxCell id="584" value="Продажи годовые" style="shape=table;childLayout=tableLayout;rowLines=0;columnLines=0;startSize=40;collapsible=0;recursiveResize=0;expand=0;pointerEvents=0;fontStyle=1;align=center;fontSize=15;fillColor=none;" vertex="1" parent="1">
                    <mxGeometry x="-1032" y="1028" width="400" height="400" as="geometry"/>
                </mxCell>
                <mxCell id="585" value="2022" style="swimlane;horizontal=0;points=[[0,0.5],[1,0.5]];portConstraint=eastwest;startSize=40;collapsible=0;recursiveResize=0;expand=0;pointerEvents=0;fontStyle=1;fontSize=15;fillColor=none;" vertex="1" parent="584">
                    <mxGeometry y="40" width="400" height="120" as="geometry"/>
                </mxCell>
                <mxCell id="586" value="Comp4" style="swimlane;connectable=0;startSize=24;collapsible=0;recursiveResize=0;expand=0;pointerEvents=0;fontSize=15;fillColor=none;" vertex="1" parent="585">
                    <mxGeometry x="40" width="128" height="120" as="geometry">
                        <mxRectangle width="128" height="120" as="alternateBounds"/>
                    </mxGeometry>
                </mxCell>
                <mxCell id="587" value="253293 руб" style="text;strokeColor=none;fillColor=none;html=1;fontSize=15;fontStyle=1;verticalAlign=middle;align=center;" vertex="1" parent="586">
                    <mxGeometry x="12" y="56" width="100" height="40" as="geometry"/>
                </mxCell>
                <mxCell id="588" value="Comp5" style="swimlane;connectable=0;startSize=24;collapsible=0;recursiveResize=0;expand=0;pointerEvents=0;fontSize=15;fillColor=none;" vertex="1" parent="585">
                    <mxGeometry x="168" width="108" height="120" as="geometry">
                        <mxRectangle width="108" height="120" as="alternateBounds"/>
                    </mxGeometry>
                </mxCell>
                <mxCell id="589" value="Comp6" style="swimlane;connectable=0;startSize=24;collapsible=0;recursiveResize=0;expand=0;pointerEvents=0;fontSize=15;fillColor=none;" vertex="1" parent="585">
                    <mxGeometry x="276" width="124" height="120" as="geometry">
                        <mxRectangle width="124" height="120" as="alternateBounds"/>
                    </mxGeometry>
                </mxCell>
                <mxCell id="603" value="7853293 руб" style="text;strokeColor=none;fillColor=none;html=1;fontSize=15;fontStyle=1;verticalAlign=middle;align=center;" vertex="1" parent="589">
                    <mxGeometry x="12" y="56" width="100" height="40" as="geometry"/>
                </mxCell>
                <mxCell id="590" value="2021" style="swimlane;horizontal=0;points=[[0,0.5],[1,0.5]];portConstraint=eastwest;startSize=40;collapsible=0;recursiveResize=0;expand=0;pointerEvents=0;fontSize=15;fillColor=none;" vertex="1" parent="584">
                    <mxGeometry y="160" width="400" height="120" as="geometry"/>
                </mxCell>
                <mxCell id="591" value="" style="swimlane;connectable=0;startSize=0;collapsible=0;recursiveResize=0;expand=0;pointerEvents=0;fontSize=15;fillColor=none;" vertex="1" parent="590">
                    <mxGeometry x="40" width="128" height="120" as="geometry">
                        <mxRectangle width="128" height="120" as="alternateBounds"/>
                    </mxGeometry>
                </mxCell>
                <mxCell id="592" value="" style="swimlane;connectable=0;startSize=0;collapsible=0;recursiveResize=0;expand=0;pointerEvents=0;fontSize=15;fillColor=none;" vertex="1" parent="590">
                    <mxGeometry x="168" width="108" height="120" as="geometry">
                        <mxRectangle width="108" height="120" as="alternateBounds"/>
                    </mxGeometry>
                </mxCell>
                <mxCell id="593" value="558366 руб" style="text;strokeColor=none;fillColor=none;html=1;fontSize=15;fontStyle=1;verticalAlign=middle;align=center;" vertex="1" parent="592">
                    <mxGeometry x="4" y="36" width="100" height="40" as="geometry"/>
                </mxCell>
                <mxCell id="594" value="" style="swimlane;connectable=0;startSize=0;collapsible=0;recursiveResize=0;expand=0;pointerEvents=0;fontSize=15;fillColor=none;" vertex="1" parent="590">
                    <mxGeometry x="276" width="124" height="120" as="geometry">
                        <mxRectangle width="124" height="120" as="alternateBounds"/>
                    </mxGeometry>
                </mxCell>
                <mxCell id="595" value="877788 руб" style="text;strokeColor=none;fillColor=none;html=1;fontSize=15;fontStyle=1;verticalAlign=middle;align=center;" vertex="1" parent="594">
                    <mxGeometry x="12" y="40" width="100" height="40" as="geometry"/>
                </mxCell>
                <mxCell id="596" value="2020" style="swimlane;horizontal=0;points=[[0,0.5],[1,0.5]];portConstraint=eastwest;startSize=40;collapsible=0;recursiveResize=0;expand=0;pointerEvents=0;fontSize=15;fillColor=none;" vertex="1" parent="584">
                    <mxGeometry y="280" width="400" height="120" as="geometry"/>
                </mxCell>
                <mxCell id="597" value="" style="swimlane;connectable=0;startSize=0;collapsible=0;recursiveResize=0;expand=0;pointerEvents=0;fontSize=15;fillColor=none;" vertex="1" parent="596">
                    <mxGeometry x="40" width="128" height="120" as="geometry">
                        <mxRectangle width="128" height="120" as="alternateBounds"/>
                    </mxGeometry>
                </mxCell>
                <mxCell id="598" value="109556 руб" style="text;strokeColor=none;fillColor=none;html=1;fontSize=15;fontStyle=1;verticalAlign=middle;align=center;" vertex="1" parent="597">
                    <mxGeometry x="14" y="40" width="100" height="40" as="geometry"/>
                </mxCell>
                <mxCell id="599" value="" style="swimlane;connectable=0;startSize=0;collapsible=0;recursiveResize=0;expand=0;pointerEvents=0;fontSize=15;fillColor=none;" vertex="1" parent="596">
                    <mxGeometry x="168" width="108" height="120" as="geometry">
                        <mxRectangle width="108" height="120" as="alternateBounds"/>
                    </mxGeometry>
                </mxCell>
                <mxCell id="600" value="" style="swimlane;connectable=0;startSize=0;collapsible=0;recursiveResize=0;expand=0;pointerEvents=0;fontSize=15;fillColor=none;" vertex="1" parent="596">
                    <mxGeometry x="276" width="124" height="120" as="geometry">
                        <mxRectangle width="124" height="120" as="alternateBounds"/>
                    </mxGeometry>
                </mxCell>
                <mxCell id="601" value="2563293 руб" style="text;strokeColor=none;fillColor=none;html=1;fontSize=15;fontStyle=1;verticalAlign=middle;align=center;" vertex="1" parent="600">
                    <mxGeometry x="-100" y="40" width="100" height="40" as="geometry"/>
                </mxCell>
                <mxCell id="607" value="Сравнить" style="rounded=1;whiteSpace=wrap;html=1;fontSize=25;fillColor=#f0a30a;fontColor=#000000;strokeColor=#BD7000;labelBackgroundColor=none;" vertex="1" parent="1">
                    <mxGeometry x="-558" y="1476" width="180" height="60" as="geometry"/>
                </mxCell>
                <mxCell id="612" value="Обьединить" style="rounded=1;whiteSpace=wrap;html=1;fontSize=25;fillColor=#f0a30a;fontColor=#000000;strokeColor=#BD7000;labelBackgroundColor=none;" vertex="1" parent="1">
                    <mxGeometry x="-324" y="1476" width="180" height="60" as="geometry"/>
                </mxCell>
            </root>
        </mxGraphModel>
    </diagram>
</mxfile>